G75*
%MOIN*%
%OFA0B0*%
%FSLAX25Y25*%
%IPPOS*%
%LPD*%
%AMOC8*
5,1,8,0,0,1.08239X$1,22.5*
%
%ADD10C,0.09700*%
%ADD11OC8,0.08200*%
%ADD12C,0.10850*%
%ADD13C,0.03378*%
D10*
X0016500Y0106500D03*
X0106500Y0016500D03*
X0196500Y0106500D03*
D11*
X0051500Y0026854D03*
X0051500Y0036697D03*
X0051500Y0046539D03*
X0051500Y0056382D03*
X0051500Y0066224D03*
X0051500Y0076067D03*
X0051500Y0085909D03*
X0051500Y0095752D03*
X0046500Y0136500D03*
X0046500Y0146500D03*
X0056500Y0146500D03*
X0056500Y0136500D03*
X0056500Y0156500D03*
X0056500Y0166500D03*
X0056500Y0176500D03*
X0046500Y0176500D03*
X0046500Y0166500D03*
X0046500Y0156500D03*
X0146500Y0151500D03*
X0146500Y0161500D03*
X0146500Y0171500D03*
X0146500Y0181500D03*
X0156500Y0181500D03*
X0156500Y0171500D03*
X0156500Y0161500D03*
X0156500Y0151500D03*
X0156500Y0076500D03*
X0156500Y0066500D03*
X0156500Y0056500D03*
X0146500Y0056500D03*
X0146500Y0066500D03*
X0146500Y0076500D03*
D12*
X0026525Y0139000D02*
X0016475Y0139000D01*
X0016475Y0154000D02*
X0026525Y0154000D01*
D13*
X0051500Y0126500D03*
X0106500Y0156500D03*
X0111500Y0161500D03*
X0116500Y0146500D03*
X0176500Y0191500D03*
M02*
