G75*
%MOIN*%
%OFA0B0*%
%FSLAX25Y25*%
%IPPOS*%
%LPD*%
%AMOC8*
5,1,8,0,0,1.08239X$1,22.5*
%
%ADD10C,0.00600*%
%ADD11C,0.00000*%
%ADD12OC8,0.07400*%
%ADD13C,0.10050*%
%ADD14C,0.01000*%
%ADD15C,0.02578*%
%ADD16C,0.04000*%
D10*
X0006500Y0011500D02*
X0006500Y0201500D01*
X0011500Y0206500D01*
X0201500Y0206500D01*
X0206500Y0201500D01*
X0206500Y0011500D01*
X0201500Y0006500D01*
X0011500Y0006500D01*
X0006500Y0011500D01*
D11*
X0012050Y0106500D02*
X0012052Y0106633D01*
X0012058Y0106766D01*
X0012068Y0106899D01*
X0012082Y0107031D01*
X0012100Y0107163D01*
X0012122Y0107295D01*
X0012147Y0107425D01*
X0012177Y0107555D01*
X0012210Y0107684D01*
X0012248Y0107812D01*
X0012289Y0107938D01*
X0012334Y0108064D01*
X0012382Y0108188D01*
X0012435Y0108310D01*
X0012491Y0108431D01*
X0012550Y0108550D01*
X0012613Y0108667D01*
X0012680Y0108782D01*
X0012750Y0108896D01*
X0012823Y0109007D01*
X0012900Y0109116D01*
X0012980Y0109222D01*
X0013063Y0109326D01*
X0013149Y0109428D01*
X0013238Y0109527D01*
X0013330Y0109623D01*
X0013425Y0109716D01*
X0013522Y0109807D01*
X0013623Y0109895D01*
X0013725Y0109979D01*
X0013831Y0110061D01*
X0013939Y0110139D01*
X0014049Y0110214D01*
X0014161Y0110286D01*
X0014275Y0110354D01*
X0014391Y0110419D01*
X0014509Y0110480D01*
X0014629Y0110538D01*
X0014751Y0110592D01*
X0014874Y0110642D01*
X0014999Y0110689D01*
X0015125Y0110732D01*
X0015252Y0110771D01*
X0015380Y0110807D01*
X0015510Y0110838D01*
X0015640Y0110866D01*
X0015771Y0110890D01*
X0015903Y0110910D01*
X0016035Y0110926D01*
X0016167Y0110938D01*
X0016300Y0110946D01*
X0016433Y0110950D01*
X0016567Y0110950D01*
X0016700Y0110946D01*
X0016833Y0110938D01*
X0016965Y0110926D01*
X0017097Y0110910D01*
X0017229Y0110890D01*
X0017360Y0110866D01*
X0017490Y0110838D01*
X0017620Y0110807D01*
X0017748Y0110771D01*
X0017875Y0110732D01*
X0018001Y0110689D01*
X0018126Y0110642D01*
X0018249Y0110592D01*
X0018371Y0110538D01*
X0018491Y0110480D01*
X0018609Y0110419D01*
X0018725Y0110354D01*
X0018839Y0110286D01*
X0018951Y0110214D01*
X0019061Y0110139D01*
X0019169Y0110061D01*
X0019275Y0109979D01*
X0019377Y0109895D01*
X0019478Y0109807D01*
X0019575Y0109716D01*
X0019670Y0109623D01*
X0019762Y0109527D01*
X0019851Y0109428D01*
X0019937Y0109326D01*
X0020020Y0109222D01*
X0020100Y0109116D01*
X0020177Y0109007D01*
X0020250Y0108896D01*
X0020320Y0108782D01*
X0020387Y0108667D01*
X0020450Y0108550D01*
X0020509Y0108431D01*
X0020565Y0108310D01*
X0020618Y0108188D01*
X0020666Y0108064D01*
X0020711Y0107938D01*
X0020752Y0107812D01*
X0020790Y0107684D01*
X0020823Y0107555D01*
X0020853Y0107425D01*
X0020878Y0107295D01*
X0020900Y0107163D01*
X0020918Y0107031D01*
X0020932Y0106899D01*
X0020942Y0106766D01*
X0020948Y0106633D01*
X0020950Y0106500D01*
X0020948Y0106367D01*
X0020942Y0106234D01*
X0020932Y0106101D01*
X0020918Y0105969D01*
X0020900Y0105837D01*
X0020878Y0105705D01*
X0020853Y0105575D01*
X0020823Y0105445D01*
X0020790Y0105316D01*
X0020752Y0105188D01*
X0020711Y0105062D01*
X0020666Y0104936D01*
X0020618Y0104812D01*
X0020565Y0104690D01*
X0020509Y0104569D01*
X0020450Y0104450D01*
X0020387Y0104333D01*
X0020320Y0104218D01*
X0020250Y0104104D01*
X0020177Y0103993D01*
X0020100Y0103884D01*
X0020020Y0103778D01*
X0019937Y0103674D01*
X0019851Y0103572D01*
X0019762Y0103473D01*
X0019670Y0103377D01*
X0019575Y0103284D01*
X0019478Y0103193D01*
X0019377Y0103105D01*
X0019275Y0103021D01*
X0019169Y0102939D01*
X0019061Y0102861D01*
X0018951Y0102786D01*
X0018839Y0102714D01*
X0018725Y0102646D01*
X0018609Y0102581D01*
X0018491Y0102520D01*
X0018371Y0102462D01*
X0018249Y0102408D01*
X0018126Y0102358D01*
X0018001Y0102311D01*
X0017875Y0102268D01*
X0017748Y0102229D01*
X0017620Y0102193D01*
X0017490Y0102162D01*
X0017360Y0102134D01*
X0017229Y0102110D01*
X0017097Y0102090D01*
X0016965Y0102074D01*
X0016833Y0102062D01*
X0016700Y0102054D01*
X0016567Y0102050D01*
X0016433Y0102050D01*
X0016300Y0102054D01*
X0016167Y0102062D01*
X0016035Y0102074D01*
X0015903Y0102090D01*
X0015771Y0102110D01*
X0015640Y0102134D01*
X0015510Y0102162D01*
X0015380Y0102193D01*
X0015252Y0102229D01*
X0015125Y0102268D01*
X0014999Y0102311D01*
X0014874Y0102358D01*
X0014751Y0102408D01*
X0014629Y0102462D01*
X0014509Y0102520D01*
X0014391Y0102581D01*
X0014275Y0102646D01*
X0014161Y0102714D01*
X0014049Y0102786D01*
X0013939Y0102861D01*
X0013831Y0102939D01*
X0013725Y0103021D01*
X0013623Y0103105D01*
X0013522Y0103193D01*
X0013425Y0103284D01*
X0013330Y0103377D01*
X0013238Y0103473D01*
X0013149Y0103572D01*
X0013063Y0103674D01*
X0012980Y0103778D01*
X0012900Y0103884D01*
X0012823Y0103993D01*
X0012750Y0104104D01*
X0012680Y0104218D01*
X0012613Y0104333D01*
X0012550Y0104450D01*
X0012491Y0104569D01*
X0012435Y0104690D01*
X0012382Y0104812D01*
X0012334Y0104936D01*
X0012289Y0105062D01*
X0012248Y0105188D01*
X0012210Y0105316D01*
X0012177Y0105445D01*
X0012147Y0105575D01*
X0012122Y0105705D01*
X0012100Y0105837D01*
X0012082Y0105969D01*
X0012068Y0106101D01*
X0012058Y0106234D01*
X0012052Y0106367D01*
X0012050Y0106500D01*
X0102050Y0016500D02*
X0102052Y0016633D01*
X0102058Y0016766D01*
X0102068Y0016899D01*
X0102082Y0017031D01*
X0102100Y0017163D01*
X0102122Y0017295D01*
X0102147Y0017425D01*
X0102177Y0017555D01*
X0102210Y0017684D01*
X0102248Y0017812D01*
X0102289Y0017938D01*
X0102334Y0018064D01*
X0102382Y0018188D01*
X0102435Y0018310D01*
X0102491Y0018431D01*
X0102550Y0018550D01*
X0102613Y0018667D01*
X0102680Y0018782D01*
X0102750Y0018896D01*
X0102823Y0019007D01*
X0102900Y0019116D01*
X0102980Y0019222D01*
X0103063Y0019326D01*
X0103149Y0019428D01*
X0103238Y0019527D01*
X0103330Y0019623D01*
X0103425Y0019716D01*
X0103522Y0019807D01*
X0103623Y0019895D01*
X0103725Y0019979D01*
X0103831Y0020061D01*
X0103939Y0020139D01*
X0104049Y0020214D01*
X0104161Y0020286D01*
X0104275Y0020354D01*
X0104391Y0020419D01*
X0104509Y0020480D01*
X0104629Y0020538D01*
X0104751Y0020592D01*
X0104874Y0020642D01*
X0104999Y0020689D01*
X0105125Y0020732D01*
X0105252Y0020771D01*
X0105380Y0020807D01*
X0105510Y0020838D01*
X0105640Y0020866D01*
X0105771Y0020890D01*
X0105903Y0020910D01*
X0106035Y0020926D01*
X0106167Y0020938D01*
X0106300Y0020946D01*
X0106433Y0020950D01*
X0106567Y0020950D01*
X0106700Y0020946D01*
X0106833Y0020938D01*
X0106965Y0020926D01*
X0107097Y0020910D01*
X0107229Y0020890D01*
X0107360Y0020866D01*
X0107490Y0020838D01*
X0107620Y0020807D01*
X0107748Y0020771D01*
X0107875Y0020732D01*
X0108001Y0020689D01*
X0108126Y0020642D01*
X0108249Y0020592D01*
X0108371Y0020538D01*
X0108491Y0020480D01*
X0108609Y0020419D01*
X0108725Y0020354D01*
X0108839Y0020286D01*
X0108951Y0020214D01*
X0109061Y0020139D01*
X0109169Y0020061D01*
X0109275Y0019979D01*
X0109377Y0019895D01*
X0109478Y0019807D01*
X0109575Y0019716D01*
X0109670Y0019623D01*
X0109762Y0019527D01*
X0109851Y0019428D01*
X0109937Y0019326D01*
X0110020Y0019222D01*
X0110100Y0019116D01*
X0110177Y0019007D01*
X0110250Y0018896D01*
X0110320Y0018782D01*
X0110387Y0018667D01*
X0110450Y0018550D01*
X0110509Y0018431D01*
X0110565Y0018310D01*
X0110618Y0018188D01*
X0110666Y0018064D01*
X0110711Y0017938D01*
X0110752Y0017812D01*
X0110790Y0017684D01*
X0110823Y0017555D01*
X0110853Y0017425D01*
X0110878Y0017295D01*
X0110900Y0017163D01*
X0110918Y0017031D01*
X0110932Y0016899D01*
X0110942Y0016766D01*
X0110948Y0016633D01*
X0110950Y0016500D01*
X0110948Y0016367D01*
X0110942Y0016234D01*
X0110932Y0016101D01*
X0110918Y0015969D01*
X0110900Y0015837D01*
X0110878Y0015705D01*
X0110853Y0015575D01*
X0110823Y0015445D01*
X0110790Y0015316D01*
X0110752Y0015188D01*
X0110711Y0015062D01*
X0110666Y0014936D01*
X0110618Y0014812D01*
X0110565Y0014690D01*
X0110509Y0014569D01*
X0110450Y0014450D01*
X0110387Y0014333D01*
X0110320Y0014218D01*
X0110250Y0014104D01*
X0110177Y0013993D01*
X0110100Y0013884D01*
X0110020Y0013778D01*
X0109937Y0013674D01*
X0109851Y0013572D01*
X0109762Y0013473D01*
X0109670Y0013377D01*
X0109575Y0013284D01*
X0109478Y0013193D01*
X0109377Y0013105D01*
X0109275Y0013021D01*
X0109169Y0012939D01*
X0109061Y0012861D01*
X0108951Y0012786D01*
X0108839Y0012714D01*
X0108725Y0012646D01*
X0108609Y0012581D01*
X0108491Y0012520D01*
X0108371Y0012462D01*
X0108249Y0012408D01*
X0108126Y0012358D01*
X0108001Y0012311D01*
X0107875Y0012268D01*
X0107748Y0012229D01*
X0107620Y0012193D01*
X0107490Y0012162D01*
X0107360Y0012134D01*
X0107229Y0012110D01*
X0107097Y0012090D01*
X0106965Y0012074D01*
X0106833Y0012062D01*
X0106700Y0012054D01*
X0106567Y0012050D01*
X0106433Y0012050D01*
X0106300Y0012054D01*
X0106167Y0012062D01*
X0106035Y0012074D01*
X0105903Y0012090D01*
X0105771Y0012110D01*
X0105640Y0012134D01*
X0105510Y0012162D01*
X0105380Y0012193D01*
X0105252Y0012229D01*
X0105125Y0012268D01*
X0104999Y0012311D01*
X0104874Y0012358D01*
X0104751Y0012408D01*
X0104629Y0012462D01*
X0104509Y0012520D01*
X0104391Y0012581D01*
X0104275Y0012646D01*
X0104161Y0012714D01*
X0104049Y0012786D01*
X0103939Y0012861D01*
X0103831Y0012939D01*
X0103725Y0013021D01*
X0103623Y0013105D01*
X0103522Y0013193D01*
X0103425Y0013284D01*
X0103330Y0013377D01*
X0103238Y0013473D01*
X0103149Y0013572D01*
X0103063Y0013674D01*
X0102980Y0013778D01*
X0102900Y0013884D01*
X0102823Y0013993D01*
X0102750Y0014104D01*
X0102680Y0014218D01*
X0102613Y0014333D01*
X0102550Y0014450D01*
X0102491Y0014569D01*
X0102435Y0014690D01*
X0102382Y0014812D01*
X0102334Y0014936D01*
X0102289Y0015062D01*
X0102248Y0015188D01*
X0102210Y0015316D01*
X0102177Y0015445D01*
X0102147Y0015575D01*
X0102122Y0015705D01*
X0102100Y0015837D01*
X0102082Y0015969D01*
X0102068Y0016101D01*
X0102058Y0016234D01*
X0102052Y0016367D01*
X0102050Y0016500D01*
X0192050Y0106500D02*
X0192052Y0106633D01*
X0192058Y0106766D01*
X0192068Y0106899D01*
X0192082Y0107031D01*
X0192100Y0107163D01*
X0192122Y0107295D01*
X0192147Y0107425D01*
X0192177Y0107555D01*
X0192210Y0107684D01*
X0192248Y0107812D01*
X0192289Y0107938D01*
X0192334Y0108064D01*
X0192382Y0108188D01*
X0192435Y0108310D01*
X0192491Y0108431D01*
X0192550Y0108550D01*
X0192613Y0108667D01*
X0192680Y0108782D01*
X0192750Y0108896D01*
X0192823Y0109007D01*
X0192900Y0109116D01*
X0192980Y0109222D01*
X0193063Y0109326D01*
X0193149Y0109428D01*
X0193238Y0109527D01*
X0193330Y0109623D01*
X0193425Y0109716D01*
X0193522Y0109807D01*
X0193623Y0109895D01*
X0193725Y0109979D01*
X0193831Y0110061D01*
X0193939Y0110139D01*
X0194049Y0110214D01*
X0194161Y0110286D01*
X0194275Y0110354D01*
X0194391Y0110419D01*
X0194509Y0110480D01*
X0194629Y0110538D01*
X0194751Y0110592D01*
X0194874Y0110642D01*
X0194999Y0110689D01*
X0195125Y0110732D01*
X0195252Y0110771D01*
X0195380Y0110807D01*
X0195510Y0110838D01*
X0195640Y0110866D01*
X0195771Y0110890D01*
X0195903Y0110910D01*
X0196035Y0110926D01*
X0196167Y0110938D01*
X0196300Y0110946D01*
X0196433Y0110950D01*
X0196567Y0110950D01*
X0196700Y0110946D01*
X0196833Y0110938D01*
X0196965Y0110926D01*
X0197097Y0110910D01*
X0197229Y0110890D01*
X0197360Y0110866D01*
X0197490Y0110838D01*
X0197620Y0110807D01*
X0197748Y0110771D01*
X0197875Y0110732D01*
X0198001Y0110689D01*
X0198126Y0110642D01*
X0198249Y0110592D01*
X0198371Y0110538D01*
X0198491Y0110480D01*
X0198609Y0110419D01*
X0198725Y0110354D01*
X0198839Y0110286D01*
X0198951Y0110214D01*
X0199061Y0110139D01*
X0199169Y0110061D01*
X0199275Y0109979D01*
X0199377Y0109895D01*
X0199478Y0109807D01*
X0199575Y0109716D01*
X0199670Y0109623D01*
X0199762Y0109527D01*
X0199851Y0109428D01*
X0199937Y0109326D01*
X0200020Y0109222D01*
X0200100Y0109116D01*
X0200177Y0109007D01*
X0200250Y0108896D01*
X0200320Y0108782D01*
X0200387Y0108667D01*
X0200450Y0108550D01*
X0200509Y0108431D01*
X0200565Y0108310D01*
X0200618Y0108188D01*
X0200666Y0108064D01*
X0200711Y0107938D01*
X0200752Y0107812D01*
X0200790Y0107684D01*
X0200823Y0107555D01*
X0200853Y0107425D01*
X0200878Y0107295D01*
X0200900Y0107163D01*
X0200918Y0107031D01*
X0200932Y0106899D01*
X0200942Y0106766D01*
X0200948Y0106633D01*
X0200950Y0106500D01*
X0200948Y0106367D01*
X0200942Y0106234D01*
X0200932Y0106101D01*
X0200918Y0105969D01*
X0200900Y0105837D01*
X0200878Y0105705D01*
X0200853Y0105575D01*
X0200823Y0105445D01*
X0200790Y0105316D01*
X0200752Y0105188D01*
X0200711Y0105062D01*
X0200666Y0104936D01*
X0200618Y0104812D01*
X0200565Y0104690D01*
X0200509Y0104569D01*
X0200450Y0104450D01*
X0200387Y0104333D01*
X0200320Y0104218D01*
X0200250Y0104104D01*
X0200177Y0103993D01*
X0200100Y0103884D01*
X0200020Y0103778D01*
X0199937Y0103674D01*
X0199851Y0103572D01*
X0199762Y0103473D01*
X0199670Y0103377D01*
X0199575Y0103284D01*
X0199478Y0103193D01*
X0199377Y0103105D01*
X0199275Y0103021D01*
X0199169Y0102939D01*
X0199061Y0102861D01*
X0198951Y0102786D01*
X0198839Y0102714D01*
X0198725Y0102646D01*
X0198609Y0102581D01*
X0198491Y0102520D01*
X0198371Y0102462D01*
X0198249Y0102408D01*
X0198126Y0102358D01*
X0198001Y0102311D01*
X0197875Y0102268D01*
X0197748Y0102229D01*
X0197620Y0102193D01*
X0197490Y0102162D01*
X0197360Y0102134D01*
X0197229Y0102110D01*
X0197097Y0102090D01*
X0196965Y0102074D01*
X0196833Y0102062D01*
X0196700Y0102054D01*
X0196567Y0102050D01*
X0196433Y0102050D01*
X0196300Y0102054D01*
X0196167Y0102062D01*
X0196035Y0102074D01*
X0195903Y0102090D01*
X0195771Y0102110D01*
X0195640Y0102134D01*
X0195510Y0102162D01*
X0195380Y0102193D01*
X0195252Y0102229D01*
X0195125Y0102268D01*
X0194999Y0102311D01*
X0194874Y0102358D01*
X0194751Y0102408D01*
X0194629Y0102462D01*
X0194509Y0102520D01*
X0194391Y0102581D01*
X0194275Y0102646D01*
X0194161Y0102714D01*
X0194049Y0102786D01*
X0193939Y0102861D01*
X0193831Y0102939D01*
X0193725Y0103021D01*
X0193623Y0103105D01*
X0193522Y0103193D01*
X0193425Y0103284D01*
X0193330Y0103377D01*
X0193238Y0103473D01*
X0193149Y0103572D01*
X0193063Y0103674D01*
X0192980Y0103778D01*
X0192900Y0103884D01*
X0192823Y0103993D01*
X0192750Y0104104D01*
X0192680Y0104218D01*
X0192613Y0104333D01*
X0192550Y0104450D01*
X0192491Y0104569D01*
X0192435Y0104690D01*
X0192382Y0104812D01*
X0192334Y0104936D01*
X0192289Y0105062D01*
X0192248Y0105188D01*
X0192210Y0105316D01*
X0192177Y0105445D01*
X0192147Y0105575D01*
X0192122Y0105705D01*
X0192100Y0105837D01*
X0192082Y0105969D01*
X0192068Y0106101D01*
X0192058Y0106234D01*
X0192052Y0106367D01*
X0192050Y0106500D01*
D12*
X0156500Y0076500D03*
X0156500Y0066500D03*
X0156500Y0056500D03*
X0146500Y0056500D03*
X0146500Y0066500D03*
X0146500Y0076500D03*
X0146500Y0151500D03*
X0146500Y0161500D03*
X0146500Y0171500D03*
X0146500Y0181500D03*
X0156500Y0181500D03*
X0156500Y0171500D03*
X0156500Y0161500D03*
X0156500Y0151500D03*
X0056500Y0146500D03*
X0056500Y0136500D03*
X0046500Y0136500D03*
X0046500Y0146500D03*
X0046500Y0156500D03*
X0046500Y0166500D03*
X0046500Y0176500D03*
X0056500Y0176500D03*
X0056500Y0166500D03*
X0056500Y0156500D03*
X0051500Y0095752D03*
X0051500Y0085909D03*
X0051500Y0076067D03*
X0051500Y0066224D03*
X0051500Y0056382D03*
X0051500Y0046539D03*
X0051500Y0036697D03*
X0051500Y0026854D03*
D13*
X0026525Y0139000D02*
X0016475Y0139000D01*
X0016475Y0154000D02*
X0026525Y0154000D01*
D14*
X0021500Y0154000D02*
X0034000Y0154000D01*
X0041500Y0146500D01*
X0046500Y0146500D01*
X0043349Y0142298D02*
X0032222Y0142298D01*
X0032057Y0142696D02*
X0030221Y0144532D01*
X0027823Y0145525D01*
X0015177Y0145525D01*
X0012779Y0144532D01*
X0010943Y0142696D01*
X0009950Y0140298D01*
X0009950Y0137702D01*
X0010943Y0135304D01*
X0012779Y0133468D01*
X0015177Y0132475D01*
X0027823Y0132475D01*
X0030221Y0133468D01*
X0032057Y0135304D01*
X0033050Y0137702D01*
X0033050Y0140298D01*
X0032057Y0142696D01*
X0031457Y0143296D02*
X0042350Y0143296D01*
X0041352Y0144295D02*
X0030458Y0144295D01*
X0028383Y0145293D02*
X0039878Y0145293D01*
X0040672Y0144500D02*
X0041300Y0144500D01*
X0041300Y0144346D01*
X0044146Y0141500D01*
X0041300Y0138654D01*
X0041300Y0134346D01*
X0044346Y0131300D01*
X0044500Y0131300D01*
X0044500Y0120672D01*
X0045672Y0119500D01*
X0082328Y0119500D01*
X0122328Y0159500D01*
X0141300Y0159500D01*
X0141300Y0159346D01*
X0144146Y0156500D01*
X0141300Y0153654D01*
X0141300Y0149346D01*
X0144346Y0146300D01*
X0148472Y0146300D01*
X0145672Y0143500D01*
X0122328Y0143500D01*
X0119289Y0146539D01*
X0119289Y0147055D01*
X0118864Y0148080D01*
X0118080Y0148864D01*
X0117055Y0149289D01*
X0115945Y0149289D01*
X0114920Y0148864D01*
X0114136Y0148080D01*
X0113711Y0147055D01*
X0113711Y0145945D01*
X0114136Y0144920D01*
X0114920Y0144136D01*
X0115945Y0143711D01*
X0116461Y0143711D01*
X0119500Y0140672D01*
X0120672Y0139500D01*
X0147328Y0139500D01*
X0154237Y0146409D01*
X0154346Y0146300D01*
X0158654Y0146300D01*
X0161700Y0149346D01*
X0161700Y0153654D01*
X0158854Y0156500D01*
X0159998Y0157644D01*
X0171500Y0152231D01*
X0171500Y0087828D01*
X0170828Y0088500D01*
X0147328Y0088500D01*
X0123500Y0112328D01*
X0123500Y0112328D01*
X0122328Y0113500D01*
X0030672Y0113500D01*
X0029500Y0112328D01*
X0029500Y0070672D01*
X0030672Y0069500D01*
X0047422Y0069500D01*
X0046300Y0068378D01*
X0046300Y0064070D01*
X0049067Y0061303D01*
X0046300Y0058536D01*
X0046300Y0056882D01*
X0051000Y0056882D01*
X0051000Y0055882D01*
X0046300Y0055882D01*
X0046300Y0054228D01*
X0049067Y0051461D01*
X0046300Y0048693D01*
X0046300Y0044385D01*
X0049067Y0041618D01*
X0046300Y0038851D01*
X0046300Y0034543D01*
X0049067Y0031776D01*
X0046300Y0029008D01*
X0046300Y0024700D01*
X0049346Y0021654D01*
X0053654Y0021654D01*
X0056500Y0024500D01*
X0125672Y0024500D01*
X0140672Y0009500D01*
X0172328Y0009500D01*
X0187328Y0024500D01*
X0187328Y0024500D01*
X0188500Y0025672D01*
X0188500Y0192328D01*
X0178500Y0202328D01*
X0177328Y0203500D01*
X0155672Y0203500D01*
X0135672Y0183500D01*
X0134500Y0182328D01*
X0134500Y0175672D01*
X0139500Y0170672D01*
X0140672Y0169500D01*
X0141300Y0169500D01*
X0141300Y0169346D01*
X0144146Y0166500D01*
X0141300Y0163654D01*
X0141300Y0163500D01*
X0120672Y0163500D01*
X0119500Y0162328D01*
X0080672Y0123500D01*
X0048500Y0123500D01*
X0048500Y0131300D01*
X0048654Y0131300D01*
X0051500Y0134146D01*
X0054346Y0131300D01*
X0054500Y0131300D01*
X0054500Y0128500D01*
X0053444Y0128500D01*
X0053080Y0128864D01*
X0052055Y0129289D01*
X0050945Y0129289D01*
X0049920Y0128864D01*
X0049136Y0128080D01*
X0048711Y0127055D01*
X0048711Y0125945D01*
X0049136Y0124920D01*
X0049920Y0124136D01*
X0050945Y0123711D01*
X0052055Y0123711D01*
X0053080Y0124136D01*
X0053444Y0124500D01*
X0057328Y0124500D01*
X0058500Y0125672D01*
X0058500Y0131300D01*
X0058654Y0131300D01*
X0061700Y0134346D01*
X0061700Y0138654D01*
X0058854Y0141500D01*
X0061700Y0144346D01*
X0061700Y0146000D01*
X0057000Y0146000D01*
X0057000Y0147000D01*
X0061700Y0147000D01*
X0061700Y0148654D01*
X0058854Y0151500D01*
X0061700Y0154346D01*
X0061700Y0158654D01*
X0058854Y0161500D01*
X0061700Y0164346D01*
X0061700Y0168654D01*
X0058854Y0171500D01*
X0061700Y0174346D01*
X0061700Y0178654D01*
X0058654Y0181700D01*
X0054346Y0181700D01*
X0051500Y0178854D01*
X0048654Y0181700D01*
X0044346Y0181700D01*
X0041300Y0178654D01*
X0041300Y0174346D01*
X0044146Y0171500D01*
X0041300Y0168654D01*
X0041300Y0168500D01*
X0038500Y0168500D01*
X0038500Y0180672D01*
X0042328Y0184500D01*
X0075672Y0184500D01*
X0103711Y0156461D01*
X0103711Y0155945D01*
X0104136Y0154920D01*
X0104920Y0154136D01*
X0105945Y0153711D01*
X0107055Y0153711D01*
X0108080Y0154136D01*
X0108864Y0154920D01*
X0109289Y0155945D01*
X0109289Y0157055D01*
X0108864Y0158080D01*
X0108080Y0158864D01*
X0107055Y0159289D01*
X0106539Y0159289D01*
X0077328Y0188500D01*
X0041328Y0188500D01*
X0042328Y0189500D01*
X0080672Y0189500D01*
X0108711Y0161461D01*
X0108711Y0160945D01*
X0109136Y0159920D01*
X0109920Y0159136D01*
X0110945Y0158711D01*
X0112055Y0158711D01*
X0113080Y0159136D01*
X0113864Y0159920D01*
X0114289Y0160945D01*
X0114289Y0162055D01*
X0113864Y0163080D01*
X0113080Y0163864D01*
X0112055Y0164289D01*
X0111539Y0164289D01*
X0082328Y0193500D01*
X0040672Y0193500D01*
X0039500Y0192328D01*
X0029500Y0182328D01*
X0029500Y0165672D01*
X0030672Y0164500D01*
X0040672Y0154500D01*
X0041300Y0154500D01*
X0041300Y0154346D01*
X0044146Y0151500D01*
X0041737Y0149091D01*
X0036000Y0154828D01*
X0034828Y0156000D01*
X0032759Y0156000D01*
X0032057Y0157696D01*
X0030221Y0159532D01*
X0027823Y0160525D01*
X0015177Y0160525D01*
X0012779Y0159532D01*
X0010943Y0157696D01*
X0009950Y0155298D01*
X0009950Y0152702D01*
X0010943Y0150304D01*
X0012779Y0148468D01*
X0015177Y0147475D01*
X0027823Y0147475D01*
X0030221Y0148468D01*
X0032057Y0150304D01*
X0032759Y0152000D01*
X0033172Y0152000D01*
X0040672Y0144500D01*
X0038880Y0146292D02*
X0009300Y0146292D01*
X0009300Y0147290D02*
X0037881Y0147290D01*
X0036883Y0148289D02*
X0029787Y0148289D01*
X0031040Y0149287D02*
X0035884Y0149287D01*
X0034886Y0150286D02*
X0032038Y0150286D01*
X0032463Y0151284D02*
X0033887Y0151284D01*
X0036549Y0154280D02*
X0041366Y0154280D01*
X0042365Y0153281D02*
X0037547Y0153281D01*
X0038546Y0152283D02*
X0043363Y0152283D01*
X0043930Y0151284D02*
X0039544Y0151284D01*
X0040543Y0150286D02*
X0042932Y0150286D01*
X0041933Y0149287D02*
X0041541Y0149287D01*
X0039893Y0155278D02*
X0035550Y0155278D01*
X0032645Y0156277D02*
X0038895Y0156277D01*
X0037896Y0157275D02*
X0032231Y0157275D01*
X0031479Y0158274D02*
X0036898Y0158274D01*
X0035899Y0159272D02*
X0030480Y0159272D01*
X0028437Y0160271D02*
X0034901Y0160271D01*
X0033902Y0161269D02*
X0009300Y0161269D01*
X0009300Y0160271D02*
X0014563Y0160271D01*
X0012519Y0159272D02*
X0009300Y0159272D01*
X0009300Y0158274D02*
X0011521Y0158274D01*
X0010769Y0157275D02*
X0009300Y0157275D01*
X0009300Y0156277D02*
X0010355Y0156277D01*
X0009950Y0155278D02*
X0009300Y0155278D01*
X0009300Y0154280D02*
X0009950Y0154280D01*
X0009950Y0153281D02*
X0009300Y0153281D01*
X0009300Y0152283D02*
X0010124Y0152283D01*
X0010537Y0151284D02*
X0009300Y0151284D01*
X0009300Y0150286D02*
X0010962Y0150286D01*
X0011960Y0149287D02*
X0009300Y0149287D01*
X0009300Y0148289D02*
X0013213Y0148289D01*
X0014617Y0145293D02*
X0009300Y0145293D01*
X0009300Y0144295D02*
X0012542Y0144295D01*
X0011543Y0143296D02*
X0009300Y0143296D01*
X0009300Y0142298D02*
X0010778Y0142298D01*
X0010365Y0141299D02*
X0009300Y0141299D01*
X0009300Y0140301D02*
X0009951Y0140301D01*
X0009950Y0139302D02*
X0009300Y0139302D01*
X0009300Y0138303D02*
X0009950Y0138303D01*
X0010114Y0137305D02*
X0009300Y0137305D01*
X0009300Y0136306D02*
X0010528Y0136306D01*
X0010942Y0135308D02*
X0009300Y0135308D01*
X0009300Y0134309D02*
X0011938Y0134309D01*
X0013159Y0133311D02*
X0009300Y0133311D01*
X0009300Y0132312D02*
X0043334Y0132312D01*
X0044332Y0131314D02*
X0009300Y0131314D01*
X0009300Y0130315D02*
X0044500Y0130315D01*
X0044500Y0129317D02*
X0009300Y0129317D01*
X0009300Y0128318D02*
X0044500Y0128318D01*
X0044500Y0127320D02*
X0009300Y0127320D01*
X0009300Y0126321D02*
X0044500Y0126321D01*
X0044500Y0125323D02*
X0009300Y0125323D01*
X0009300Y0124324D02*
X0044500Y0124324D01*
X0044500Y0123326D02*
X0009300Y0123326D01*
X0009300Y0122327D02*
X0044500Y0122327D01*
X0044500Y0121329D02*
X0009300Y0121329D01*
X0009300Y0120330D02*
X0044841Y0120330D01*
X0046500Y0121500D02*
X0081500Y0121500D01*
X0121500Y0161500D01*
X0146500Y0161500D01*
X0142909Y0165263D02*
X0110565Y0165263D01*
X0109567Y0166262D02*
X0143908Y0166262D01*
X0143386Y0167260D02*
X0108568Y0167260D01*
X0107570Y0168259D02*
X0142387Y0168259D01*
X0141389Y0169257D02*
X0106571Y0169257D01*
X0105573Y0170256D02*
X0139916Y0170256D01*
X0138917Y0171254D02*
X0104574Y0171254D01*
X0103576Y0172253D02*
X0137919Y0172253D01*
X0136920Y0173251D02*
X0102577Y0173251D01*
X0101579Y0174250D02*
X0135922Y0174250D01*
X0134923Y0175248D02*
X0100580Y0175248D01*
X0099581Y0176247D02*
X0134500Y0176247D01*
X0134500Y0177245D02*
X0098583Y0177245D01*
X0097584Y0178244D02*
X0134500Y0178244D01*
X0134500Y0179242D02*
X0096586Y0179242D01*
X0095587Y0180241D02*
X0134500Y0180241D01*
X0134500Y0181239D02*
X0094589Y0181239D01*
X0093590Y0182238D02*
X0134500Y0182238D01*
X0135408Y0183237D02*
X0092592Y0183237D01*
X0091593Y0184235D02*
X0136407Y0184235D01*
X0137405Y0185234D02*
X0090595Y0185234D01*
X0089596Y0186232D02*
X0138404Y0186232D01*
X0139402Y0187231D02*
X0088598Y0187231D01*
X0087599Y0188229D02*
X0140401Y0188229D01*
X0141399Y0189228D02*
X0086601Y0189228D01*
X0085602Y0190226D02*
X0142398Y0190226D01*
X0143396Y0191225D02*
X0084604Y0191225D01*
X0083605Y0192223D02*
X0144395Y0192223D01*
X0145393Y0193222D02*
X0082607Y0193222D01*
X0081500Y0191500D02*
X0111500Y0161500D01*
X0108990Y0160271D02*
X0105558Y0160271D01*
X0104559Y0161269D02*
X0108711Y0161269D01*
X0107904Y0162268D02*
X0103561Y0162268D01*
X0102562Y0163266D02*
X0106905Y0163266D01*
X0105907Y0164265D02*
X0101564Y0164265D01*
X0100565Y0165263D02*
X0104908Y0165263D01*
X0103910Y0166262D02*
X0099567Y0166262D01*
X0098568Y0167260D02*
X0102911Y0167260D01*
X0101913Y0168259D02*
X0097570Y0168259D01*
X0096571Y0169257D02*
X0100914Y0169257D01*
X0099916Y0170256D02*
X0095573Y0170256D01*
X0094574Y0171254D02*
X0098917Y0171254D01*
X0097919Y0172253D02*
X0093576Y0172253D01*
X0092577Y0173251D02*
X0096920Y0173251D01*
X0095922Y0174250D02*
X0091579Y0174250D01*
X0090580Y0175248D02*
X0094923Y0175248D01*
X0093925Y0176247D02*
X0089581Y0176247D01*
X0088583Y0177245D02*
X0092926Y0177245D01*
X0091928Y0178244D02*
X0087584Y0178244D01*
X0086586Y0179242D02*
X0090929Y0179242D01*
X0089931Y0180241D02*
X0085587Y0180241D01*
X0084589Y0181239D02*
X0088932Y0181239D01*
X0087934Y0182238D02*
X0083590Y0182238D01*
X0082592Y0183237D02*
X0086935Y0183237D01*
X0085937Y0184235D02*
X0081593Y0184235D01*
X0080595Y0185234D02*
X0084938Y0185234D01*
X0083940Y0186232D02*
X0079596Y0186232D01*
X0078598Y0187231D02*
X0082941Y0187231D01*
X0081943Y0188229D02*
X0077599Y0188229D01*
X0076500Y0186500D02*
X0106500Y0156500D01*
X0109013Y0155278D02*
X0112450Y0155278D01*
X0113448Y0156277D02*
X0109289Y0156277D01*
X0109198Y0157275D02*
X0114447Y0157275D01*
X0115445Y0158274D02*
X0108670Y0158274D01*
X0109784Y0159272D02*
X0107095Y0159272D01*
X0103711Y0156277D02*
X0061700Y0156277D01*
X0061700Y0157275D02*
X0102896Y0157275D01*
X0101898Y0158274D02*
X0061700Y0158274D01*
X0061082Y0159272D02*
X0100899Y0159272D01*
X0099901Y0160271D02*
X0060083Y0160271D01*
X0059085Y0161269D02*
X0098902Y0161269D01*
X0097904Y0162268D02*
X0059622Y0162268D01*
X0060620Y0163266D02*
X0096905Y0163266D01*
X0095907Y0164265D02*
X0061619Y0164265D01*
X0061700Y0165263D02*
X0094908Y0165263D01*
X0093910Y0166262D02*
X0061700Y0166262D01*
X0061700Y0167260D02*
X0092911Y0167260D01*
X0091913Y0168259D02*
X0061700Y0168259D01*
X0061097Y0169257D02*
X0090914Y0169257D01*
X0089916Y0170256D02*
X0060098Y0170256D01*
X0059100Y0171254D02*
X0088917Y0171254D01*
X0087919Y0172253D02*
X0059607Y0172253D01*
X0060605Y0173251D02*
X0086920Y0173251D01*
X0085922Y0174250D02*
X0061604Y0174250D01*
X0061700Y0175248D02*
X0084923Y0175248D01*
X0083925Y0176247D02*
X0061700Y0176247D01*
X0061700Y0177245D02*
X0082926Y0177245D01*
X0081928Y0178244D02*
X0061700Y0178244D01*
X0061111Y0179242D02*
X0080929Y0179242D01*
X0079931Y0180241D02*
X0060113Y0180241D01*
X0059114Y0181239D02*
X0078932Y0181239D01*
X0077934Y0182238D02*
X0040066Y0182238D01*
X0039068Y0181239D02*
X0043886Y0181239D01*
X0042887Y0180241D02*
X0038500Y0180241D01*
X0038500Y0179242D02*
X0041889Y0179242D01*
X0041300Y0178244D02*
X0038500Y0178244D01*
X0038500Y0177245D02*
X0041300Y0177245D01*
X0041300Y0176247D02*
X0038500Y0176247D01*
X0038500Y0175248D02*
X0041300Y0175248D01*
X0041396Y0174250D02*
X0038500Y0174250D01*
X0038500Y0173251D02*
X0042395Y0173251D01*
X0043393Y0172253D02*
X0038500Y0172253D01*
X0038500Y0171254D02*
X0043900Y0171254D01*
X0042902Y0170256D02*
X0038500Y0170256D01*
X0038500Y0169257D02*
X0041903Y0169257D01*
X0046500Y0166500D02*
X0036500Y0166500D01*
X0036500Y0181500D01*
X0041500Y0186500D01*
X0076500Y0186500D01*
X0075937Y0184235D02*
X0042063Y0184235D01*
X0041065Y0183237D02*
X0076935Y0183237D01*
X0080944Y0189228D02*
X0042056Y0189228D01*
X0041500Y0191500D02*
X0081500Y0191500D01*
X0053886Y0181239D02*
X0049114Y0181239D01*
X0050113Y0180241D02*
X0052887Y0180241D01*
X0051889Y0179242D02*
X0051111Y0179242D01*
X0041500Y0191500D02*
X0031500Y0181500D01*
X0031500Y0166500D01*
X0041500Y0156500D01*
X0046500Y0156500D01*
X0059070Y0151284D02*
X0108456Y0151284D01*
X0109454Y0152283D02*
X0059637Y0152283D01*
X0060635Y0153281D02*
X0110453Y0153281D01*
X0111451Y0154280D02*
X0108224Y0154280D01*
X0104776Y0154280D02*
X0061634Y0154280D01*
X0061700Y0155278D02*
X0103987Y0155278D01*
X0107457Y0150286D02*
X0060068Y0150286D01*
X0061067Y0149287D02*
X0106459Y0149287D01*
X0105460Y0148289D02*
X0061700Y0148289D01*
X0061700Y0147290D02*
X0104462Y0147290D01*
X0103463Y0146292D02*
X0057000Y0146292D01*
X0060650Y0143296D02*
X0100468Y0143296D01*
X0101466Y0144295D02*
X0061648Y0144295D01*
X0061700Y0145293D02*
X0102465Y0145293D01*
X0099469Y0142298D02*
X0059651Y0142298D01*
X0059055Y0141299D02*
X0098471Y0141299D01*
X0097472Y0140301D02*
X0060053Y0140301D01*
X0061052Y0139302D02*
X0096474Y0139302D01*
X0095475Y0138303D02*
X0061700Y0138303D01*
X0061700Y0137305D02*
X0094477Y0137305D01*
X0093478Y0136306D02*
X0061700Y0136306D01*
X0061700Y0135308D02*
X0092480Y0135308D01*
X0091481Y0134309D02*
X0061663Y0134309D01*
X0060665Y0133311D02*
X0090483Y0133311D01*
X0089484Y0132312D02*
X0059666Y0132312D01*
X0058668Y0131314D02*
X0088485Y0131314D01*
X0087487Y0130315D02*
X0058500Y0130315D01*
X0058500Y0129317D02*
X0086488Y0129317D01*
X0085490Y0128318D02*
X0058500Y0128318D01*
X0058500Y0127320D02*
X0084491Y0127320D01*
X0083493Y0126321D02*
X0058500Y0126321D01*
X0058151Y0125323D02*
X0082494Y0125323D01*
X0081496Y0124324D02*
X0053269Y0124324D01*
X0051500Y0126500D02*
X0056500Y0126500D01*
X0056500Y0136500D01*
X0052335Y0133311D02*
X0050665Y0133311D01*
X0049666Y0132312D02*
X0053334Y0132312D01*
X0054332Y0131314D02*
X0048668Y0131314D01*
X0048500Y0130315D02*
X0054500Y0130315D01*
X0054500Y0129317D02*
X0048500Y0129317D01*
X0048500Y0128318D02*
X0049374Y0128318D01*
X0048821Y0127320D02*
X0048500Y0127320D01*
X0048500Y0126321D02*
X0048711Y0126321D01*
X0048500Y0125323D02*
X0048969Y0125323D01*
X0048500Y0124324D02*
X0049731Y0124324D01*
X0046500Y0121500D02*
X0046500Y0136500D01*
X0042947Y0140301D02*
X0033049Y0140301D01*
X0033050Y0139302D02*
X0041948Y0139302D01*
X0041300Y0138303D02*
X0033050Y0138303D01*
X0032885Y0137305D02*
X0041300Y0137305D01*
X0041300Y0136306D02*
X0032472Y0136306D01*
X0032058Y0135308D02*
X0041300Y0135308D01*
X0041337Y0134309D02*
X0031062Y0134309D01*
X0029841Y0133311D02*
X0042335Y0133311D01*
X0043945Y0141299D02*
X0032635Y0141299D01*
X0032904Y0162268D02*
X0009300Y0162268D01*
X0009300Y0163266D02*
X0031905Y0163266D01*
X0030907Y0164265D02*
X0009300Y0164265D01*
X0009300Y0165263D02*
X0029908Y0165263D01*
X0029500Y0166262D02*
X0009300Y0166262D01*
X0009300Y0167260D02*
X0029500Y0167260D01*
X0029500Y0168259D02*
X0009300Y0168259D01*
X0009300Y0169257D02*
X0029500Y0169257D01*
X0029500Y0170256D02*
X0009300Y0170256D01*
X0009300Y0171254D02*
X0029500Y0171254D01*
X0029500Y0172253D02*
X0009300Y0172253D01*
X0009300Y0173251D02*
X0029500Y0173251D01*
X0029500Y0174250D02*
X0009300Y0174250D01*
X0009300Y0175248D02*
X0029500Y0175248D01*
X0029500Y0176247D02*
X0009300Y0176247D01*
X0009300Y0177245D02*
X0029500Y0177245D01*
X0029500Y0178244D02*
X0009300Y0178244D01*
X0009300Y0179242D02*
X0029500Y0179242D01*
X0029500Y0180241D02*
X0009300Y0180241D01*
X0009300Y0181239D02*
X0029500Y0181239D01*
X0029500Y0182238D02*
X0009300Y0182238D01*
X0009300Y0183237D02*
X0030408Y0183237D01*
X0031407Y0184235D02*
X0009300Y0184235D01*
X0009300Y0185234D02*
X0032405Y0185234D01*
X0033404Y0186232D02*
X0009300Y0186232D01*
X0009300Y0187231D02*
X0034402Y0187231D01*
X0035401Y0188229D02*
X0009300Y0188229D01*
X0009300Y0189228D02*
X0036399Y0189228D01*
X0037398Y0190226D02*
X0009300Y0190226D01*
X0009300Y0191225D02*
X0038396Y0191225D01*
X0039395Y0192223D02*
X0009300Y0192223D01*
X0009300Y0193222D02*
X0040393Y0193222D01*
X0012660Y0203700D02*
X0200340Y0203700D01*
X0203700Y0200340D01*
X0203700Y0012660D01*
X0200340Y0009300D01*
X0012660Y0009300D01*
X0009300Y0012660D01*
X0009300Y0200340D01*
X0012660Y0203700D01*
X0012167Y0203207D02*
X0155378Y0203207D01*
X0154380Y0202208D02*
X0011168Y0202208D01*
X0010169Y0201210D02*
X0153381Y0201210D01*
X0152383Y0200211D02*
X0009300Y0200211D01*
X0009300Y0199213D02*
X0151384Y0199213D01*
X0150386Y0198214D02*
X0009300Y0198214D01*
X0009300Y0197216D02*
X0149387Y0197216D01*
X0148389Y0196217D02*
X0009300Y0196217D01*
X0009300Y0195219D02*
X0147390Y0195219D01*
X0146392Y0194220D02*
X0009300Y0194220D01*
X0009300Y0119332D02*
X0171500Y0119332D01*
X0171500Y0120330D02*
X0083159Y0120330D01*
X0084157Y0121329D02*
X0171500Y0121329D01*
X0171500Y0122327D02*
X0085156Y0122327D01*
X0086154Y0123326D02*
X0171500Y0123326D01*
X0171500Y0124324D02*
X0087153Y0124324D01*
X0088151Y0125323D02*
X0171500Y0125323D01*
X0171500Y0126321D02*
X0089150Y0126321D01*
X0090148Y0127320D02*
X0171500Y0127320D01*
X0171500Y0128318D02*
X0091147Y0128318D01*
X0092145Y0129317D02*
X0171500Y0129317D01*
X0171500Y0130315D02*
X0093144Y0130315D01*
X0094142Y0131314D02*
X0171500Y0131314D01*
X0171500Y0132312D02*
X0095141Y0132312D01*
X0096139Y0133311D02*
X0171500Y0133311D01*
X0171500Y0134309D02*
X0097138Y0134309D01*
X0098136Y0135308D02*
X0171500Y0135308D01*
X0171500Y0136306D02*
X0099135Y0136306D01*
X0100133Y0137305D02*
X0171500Y0137305D01*
X0171500Y0138303D02*
X0101132Y0138303D01*
X0102130Y0139302D02*
X0171500Y0139302D01*
X0171500Y0140301D02*
X0148129Y0140301D01*
X0149127Y0141299D02*
X0171500Y0141299D01*
X0171500Y0142298D02*
X0150126Y0142298D01*
X0151124Y0143296D02*
X0171500Y0143296D01*
X0171500Y0144295D02*
X0152123Y0144295D01*
X0153121Y0145293D02*
X0171500Y0145293D01*
X0171500Y0146292D02*
X0154120Y0146292D01*
X0148463Y0146292D02*
X0119537Y0146292D01*
X0119191Y0147290D02*
X0143356Y0147290D01*
X0142357Y0148289D02*
X0118656Y0148289D01*
X0117059Y0149287D02*
X0141359Y0149287D01*
X0141300Y0150286D02*
X0113114Y0150286D01*
X0114113Y0151284D02*
X0141300Y0151284D01*
X0141300Y0152283D02*
X0115111Y0152283D01*
X0116110Y0153281D02*
X0141300Y0153281D01*
X0141926Y0154280D02*
X0117108Y0154280D01*
X0118107Y0155278D02*
X0142924Y0155278D01*
X0143923Y0156277D02*
X0119105Y0156277D01*
X0120104Y0157275D02*
X0143371Y0157275D01*
X0142372Y0158274D02*
X0121102Y0158274D01*
X0122101Y0159272D02*
X0141374Y0159272D01*
X0141911Y0164265D02*
X0112113Y0164265D01*
X0113678Y0163266D02*
X0120438Y0163266D01*
X0119439Y0162268D02*
X0114201Y0162268D01*
X0114289Y0161269D02*
X0118441Y0161269D01*
X0117442Y0160271D02*
X0114010Y0160271D01*
X0113216Y0159272D02*
X0116444Y0159272D01*
X0115941Y0149287D02*
X0112116Y0149287D01*
X0111117Y0148289D02*
X0114344Y0148289D01*
X0113809Y0147290D02*
X0110119Y0147290D01*
X0109120Y0146292D02*
X0113711Y0146292D01*
X0113981Y0145293D02*
X0108121Y0145293D01*
X0107123Y0144295D02*
X0114761Y0144295D01*
X0116876Y0143296D02*
X0106124Y0143296D01*
X0105126Y0142298D02*
X0117874Y0142298D01*
X0118873Y0141299D02*
X0104127Y0141299D01*
X0103129Y0140301D02*
X0119871Y0140301D01*
X0121500Y0141500D02*
X0146500Y0141500D01*
X0156500Y0151500D01*
X0160076Y0155278D02*
X0165024Y0155278D01*
X0162902Y0156277D02*
X0159077Y0156277D01*
X0159629Y0157275D02*
X0160781Y0157275D01*
X0161074Y0154280D02*
X0167146Y0154280D01*
X0169268Y0153281D02*
X0161700Y0153281D01*
X0161700Y0152283D02*
X0171390Y0152283D01*
X0171500Y0151284D02*
X0161700Y0151284D01*
X0161700Y0150286D02*
X0171500Y0150286D01*
X0171500Y0149287D02*
X0161641Y0149287D01*
X0160643Y0148289D02*
X0171500Y0148289D01*
X0171500Y0147290D02*
X0159644Y0147290D01*
X0168053Y0158274D02*
X0174500Y0158274D01*
X0174500Y0159272D02*
X0165931Y0159272D01*
X0163809Y0160271D02*
X0174500Y0160271D01*
X0174500Y0161269D02*
X0161700Y0161269D01*
X0161700Y0161263D02*
X0161700Y0163654D01*
X0158854Y0166500D01*
X0161700Y0169346D01*
X0161700Y0171000D01*
X0157000Y0171000D01*
X0157000Y0172000D01*
X0161700Y0172000D01*
X0161700Y0173654D01*
X0158854Y0176500D01*
X0161700Y0179346D01*
X0161700Y0183654D01*
X0158654Y0186700D01*
X0154528Y0186700D01*
X0157328Y0189500D01*
X0165672Y0189500D01*
X0174500Y0180672D01*
X0174500Y0155328D01*
X0174328Y0155500D01*
X0173947Y0155500D01*
X0161700Y0161263D01*
X0161700Y0162268D02*
X0174500Y0162268D01*
X0174500Y0163266D02*
X0161700Y0163266D01*
X0161089Y0164265D02*
X0174500Y0164265D01*
X0174500Y0165263D02*
X0160091Y0165263D01*
X0159092Y0166262D02*
X0174500Y0166262D01*
X0174500Y0167260D02*
X0159614Y0167260D01*
X0160613Y0168259D02*
X0174500Y0168259D01*
X0174500Y0169257D02*
X0161611Y0169257D01*
X0161700Y0170256D02*
X0174500Y0170256D01*
X0174500Y0171254D02*
X0157000Y0171254D01*
X0161700Y0172253D02*
X0174500Y0172253D01*
X0174500Y0173251D02*
X0161700Y0173251D01*
X0161104Y0174250D02*
X0174500Y0174250D01*
X0174500Y0175248D02*
X0160105Y0175248D01*
X0159107Y0176247D02*
X0174500Y0176247D01*
X0174500Y0177245D02*
X0159599Y0177245D01*
X0160598Y0178244D02*
X0174500Y0178244D01*
X0174500Y0179242D02*
X0161596Y0179242D01*
X0161700Y0180241D02*
X0174500Y0180241D01*
X0173932Y0181239D02*
X0161700Y0181239D01*
X0161700Y0182238D02*
X0172934Y0182238D01*
X0171935Y0183237D02*
X0161700Y0183237D01*
X0161119Y0184235D02*
X0170937Y0184235D01*
X0169938Y0185234D02*
X0160120Y0185234D01*
X0159122Y0186232D02*
X0168940Y0186232D01*
X0167941Y0187231D02*
X0155059Y0187231D01*
X0156057Y0188229D02*
X0166943Y0188229D01*
X0165944Y0189228D02*
X0157056Y0189228D01*
X0156500Y0191500D02*
X0146500Y0181500D01*
X0146500Y0171500D02*
X0141500Y0171500D01*
X0136500Y0176500D01*
X0136500Y0181500D01*
X0156500Y0201500D01*
X0176500Y0201500D01*
X0186500Y0191500D01*
X0186500Y0026500D01*
X0171500Y0011500D01*
X0141500Y0011500D01*
X0126500Y0026500D01*
X0051854Y0026500D01*
X0051500Y0026854D01*
X0047756Y0030464D02*
X0009300Y0030464D01*
X0009300Y0029466D02*
X0046758Y0029466D01*
X0046300Y0028467D02*
X0009300Y0028467D01*
X0009300Y0027469D02*
X0046300Y0027469D01*
X0046300Y0026470D02*
X0009300Y0026470D01*
X0009300Y0025472D02*
X0046300Y0025472D01*
X0046527Y0024473D02*
X0009300Y0024473D01*
X0009300Y0023475D02*
X0047526Y0023475D01*
X0048524Y0022476D02*
X0009300Y0022476D01*
X0009300Y0021478D02*
X0101649Y0021478D01*
X0102563Y0022392D02*
X0100608Y0020437D01*
X0099550Y0017882D01*
X0099550Y0015118D01*
X0100608Y0012563D01*
X0102563Y0010608D01*
X0105118Y0009550D01*
X0107882Y0009550D01*
X0110437Y0010608D01*
X0112392Y0012563D01*
X0113450Y0015118D01*
X0113450Y0017882D01*
X0112392Y0020437D01*
X0110437Y0022392D01*
X0107882Y0023450D01*
X0105118Y0023450D01*
X0102563Y0022392D01*
X0102767Y0022476D02*
X0054476Y0022476D01*
X0055474Y0023475D02*
X0126697Y0023475D01*
X0125698Y0024473D02*
X0056473Y0024473D01*
X0048755Y0031463D02*
X0009300Y0031463D01*
X0009300Y0032461D02*
X0048382Y0032461D01*
X0047383Y0033460D02*
X0009300Y0033460D01*
X0009300Y0034458D02*
X0046385Y0034458D01*
X0046300Y0035457D02*
X0009300Y0035457D01*
X0009300Y0036455D02*
X0046300Y0036455D01*
X0046300Y0037454D02*
X0009300Y0037454D01*
X0009300Y0038452D02*
X0046300Y0038452D01*
X0046900Y0039451D02*
X0009300Y0039451D01*
X0009300Y0040449D02*
X0047899Y0040449D01*
X0048897Y0041448D02*
X0009300Y0041448D01*
X0009300Y0042446D02*
X0048239Y0042446D01*
X0047241Y0043445D02*
X0009300Y0043445D01*
X0009300Y0044443D02*
X0046300Y0044443D01*
X0046300Y0045442D02*
X0009300Y0045442D01*
X0009300Y0046440D02*
X0046300Y0046440D01*
X0046300Y0047439D02*
X0009300Y0047439D01*
X0009300Y0048437D02*
X0046300Y0048437D01*
X0047043Y0049436D02*
X0009300Y0049436D01*
X0009300Y0050434D02*
X0048041Y0050434D01*
X0049040Y0051433D02*
X0009300Y0051433D01*
X0009300Y0052432D02*
X0048096Y0052432D01*
X0047098Y0053430D02*
X0009300Y0053430D01*
X0009300Y0054429D02*
X0046300Y0054429D01*
X0046300Y0055427D02*
X0009300Y0055427D01*
X0009300Y0056426D02*
X0051000Y0056426D01*
X0052000Y0056426D02*
X0061181Y0056426D01*
X0060577Y0057424D02*
X0056700Y0057424D01*
X0056700Y0056882D02*
X0056700Y0058536D01*
X0053933Y0061303D01*
X0056609Y0063980D01*
X0064733Y0050557D01*
X0071500Y0036056D01*
X0071500Y0035956D01*
X0064461Y0047117D01*
X0064461Y0047368D01*
X0064033Y0047795D01*
X0063710Y0048307D01*
X0063466Y0048362D01*
X0063289Y0048539D01*
X0062684Y0048539D01*
X0062094Y0048673D01*
X0061883Y0048539D01*
X0056700Y0048539D01*
X0056700Y0048693D01*
X0053933Y0051461D01*
X0056700Y0054228D01*
X0056700Y0055882D01*
X0052000Y0055882D01*
X0052000Y0056882D01*
X0056700Y0056882D01*
X0056700Y0055427D02*
X0061786Y0055427D01*
X0062390Y0054429D02*
X0056700Y0054429D01*
X0055902Y0053430D02*
X0062994Y0053430D01*
X0063598Y0052432D02*
X0054904Y0052432D01*
X0053960Y0051433D02*
X0064203Y0051433D01*
X0064790Y0050434D02*
X0054959Y0050434D01*
X0055957Y0049436D02*
X0065256Y0049436D01*
X0065722Y0048437D02*
X0063391Y0048437D01*
X0064389Y0047439D02*
X0066188Y0047439D01*
X0066654Y0046440D02*
X0064888Y0046440D01*
X0065517Y0045442D02*
X0067120Y0045442D01*
X0067586Y0044443D02*
X0066147Y0044443D01*
X0066777Y0043445D02*
X0068052Y0043445D01*
X0068518Y0042446D02*
X0067407Y0042446D01*
X0068036Y0041448D02*
X0068984Y0041448D01*
X0068666Y0040449D02*
X0069450Y0040449D01*
X0069296Y0039451D02*
X0069916Y0039451D01*
X0069926Y0038452D02*
X0070382Y0038452D01*
X0070555Y0037454D02*
X0070848Y0037454D01*
X0071185Y0036455D02*
X0071314Y0036455D01*
X0073500Y0036500D02*
X0129500Y0036500D01*
X0142500Y0024000D01*
X0166500Y0024000D01*
X0173500Y0030500D01*
X0173500Y0153500D01*
X0156500Y0161500D01*
X0170175Y0157275D02*
X0174500Y0157275D01*
X0174500Y0156277D02*
X0172297Y0156277D01*
X0188500Y0156277D02*
X0203700Y0156277D01*
X0203700Y0157275D02*
X0188500Y0157275D01*
X0188500Y0158274D02*
X0203700Y0158274D01*
X0203700Y0159272D02*
X0188500Y0159272D01*
X0188500Y0160271D02*
X0203700Y0160271D01*
X0203700Y0161269D02*
X0188500Y0161269D01*
X0188500Y0162268D02*
X0203700Y0162268D01*
X0203700Y0163266D02*
X0188500Y0163266D01*
X0188500Y0164265D02*
X0203700Y0164265D01*
X0203700Y0165263D02*
X0188500Y0165263D01*
X0188500Y0166262D02*
X0203700Y0166262D01*
X0203700Y0167260D02*
X0188500Y0167260D01*
X0188500Y0168259D02*
X0203700Y0168259D01*
X0203700Y0169257D02*
X0188500Y0169257D01*
X0188500Y0170256D02*
X0203700Y0170256D01*
X0203700Y0171254D02*
X0188500Y0171254D01*
X0188500Y0172253D02*
X0203700Y0172253D01*
X0203700Y0173251D02*
X0188500Y0173251D01*
X0188500Y0174250D02*
X0203700Y0174250D01*
X0203700Y0175248D02*
X0188500Y0175248D01*
X0188500Y0176247D02*
X0203700Y0176247D01*
X0203700Y0177245D02*
X0188500Y0177245D01*
X0188500Y0178244D02*
X0203700Y0178244D01*
X0203700Y0179242D02*
X0188500Y0179242D01*
X0188500Y0180241D02*
X0203700Y0180241D01*
X0203700Y0181239D02*
X0188500Y0181239D01*
X0188500Y0182238D02*
X0203700Y0182238D01*
X0203700Y0183237D02*
X0188500Y0183237D01*
X0188500Y0184235D02*
X0203700Y0184235D01*
X0203700Y0185234D02*
X0188500Y0185234D01*
X0188500Y0186232D02*
X0203700Y0186232D01*
X0203700Y0187231D02*
X0188500Y0187231D01*
X0188500Y0188229D02*
X0203700Y0188229D01*
X0203700Y0189228D02*
X0188500Y0189228D01*
X0188500Y0190226D02*
X0203700Y0190226D01*
X0203700Y0191225D02*
X0188500Y0191225D01*
X0188500Y0192223D02*
X0203700Y0192223D01*
X0203700Y0193222D02*
X0187607Y0193222D01*
X0186608Y0194220D02*
X0203700Y0194220D01*
X0203700Y0195219D02*
X0185610Y0195219D01*
X0184611Y0196217D02*
X0203700Y0196217D01*
X0203700Y0197216D02*
X0183613Y0197216D01*
X0182614Y0198214D02*
X0203700Y0198214D01*
X0203700Y0199213D02*
X0181616Y0199213D01*
X0180617Y0200211D02*
X0203700Y0200211D01*
X0202830Y0201210D02*
X0179619Y0201210D01*
X0178620Y0202208D02*
X0201832Y0202208D01*
X0200833Y0203207D02*
X0177622Y0203207D01*
X0176500Y0191500D02*
X0181500Y0186500D01*
X0181500Y0029000D01*
X0169500Y0016000D01*
X0141500Y0016000D01*
X0128000Y0029500D01*
X0066500Y0029500D01*
X0063303Y0036697D01*
X0051500Y0036697D01*
X0051500Y0046539D02*
X0062461Y0046539D01*
X0071000Y0033000D01*
X0129000Y0033000D01*
X0142000Y0020000D01*
X0167500Y0020000D01*
X0176500Y0029000D01*
X0176500Y0181500D01*
X0166500Y0191500D01*
X0156500Y0191500D01*
X0188500Y0155278D02*
X0203700Y0155278D01*
X0203700Y0154280D02*
X0188500Y0154280D01*
X0188500Y0153281D02*
X0203700Y0153281D01*
X0203700Y0152283D02*
X0188500Y0152283D01*
X0188500Y0151284D02*
X0203700Y0151284D01*
X0203700Y0150286D02*
X0188500Y0150286D01*
X0188500Y0149287D02*
X0203700Y0149287D01*
X0203700Y0148289D02*
X0188500Y0148289D01*
X0188500Y0147290D02*
X0203700Y0147290D01*
X0203700Y0146292D02*
X0188500Y0146292D01*
X0188500Y0145293D02*
X0203700Y0145293D01*
X0203700Y0144295D02*
X0188500Y0144295D01*
X0188500Y0143296D02*
X0203700Y0143296D01*
X0203700Y0142298D02*
X0188500Y0142298D01*
X0188500Y0141299D02*
X0203700Y0141299D01*
X0203700Y0140301D02*
X0188500Y0140301D01*
X0188500Y0139302D02*
X0203700Y0139302D01*
X0203700Y0138303D02*
X0188500Y0138303D01*
X0188500Y0137305D02*
X0203700Y0137305D01*
X0203700Y0136306D02*
X0188500Y0136306D01*
X0188500Y0135308D02*
X0203700Y0135308D01*
X0203700Y0134309D02*
X0188500Y0134309D01*
X0188500Y0133311D02*
X0203700Y0133311D01*
X0203700Y0132312D02*
X0188500Y0132312D01*
X0188500Y0131314D02*
X0203700Y0131314D01*
X0203700Y0130315D02*
X0188500Y0130315D01*
X0188500Y0129317D02*
X0203700Y0129317D01*
X0203700Y0128318D02*
X0188500Y0128318D01*
X0188500Y0127320D02*
X0203700Y0127320D01*
X0203700Y0126321D02*
X0188500Y0126321D01*
X0188500Y0125323D02*
X0203700Y0125323D01*
X0203700Y0124324D02*
X0188500Y0124324D01*
X0188500Y0123326D02*
X0203700Y0123326D01*
X0203700Y0122327D02*
X0188500Y0122327D01*
X0188500Y0121329D02*
X0203700Y0121329D01*
X0203700Y0120330D02*
X0188500Y0120330D01*
X0188500Y0119332D02*
X0203700Y0119332D01*
X0203700Y0118333D02*
X0188500Y0118333D01*
X0188500Y0117335D02*
X0203700Y0117335D01*
X0203700Y0116336D02*
X0188500Y0116336D01*
X0188500Y0115338D02*
X0203700Y0115338D01*
X0203700Y0114339D02*
X0188500Y0114339D01*
X0188500Y0113341D02*
X0194854Y0113341D01*
X0195118Y0113450D02*
X0192563Y0112392D01*
X0190608Y0110437D01*
X0189550Y0107882D01*
X0189550Y0105118D01*
X0190608Y0102563D01*
X0192563Y0100608D01*
X0195118Y0099550D01*
X0197882Y0099550D01*
X0200437Y0100608D01*
X0202392Y0102563D01*
X0203450Y0105118D01*
X0203450Y0107882D01*
X0202392Y0110437D01*
X0200437Y0112392D01*
X0197882Y0113450D01*
X0195118Y0113450D01*
X0192513Y0112342D02*
X0188500Y0112342D01*
X0188500Y0111344D02*
X0191515Y0111344D01*
X0190570Y0110345D02*
X0188500Y0110345D01*
X0188500Y0109347D02*
X0190157Y0109347D01*
X0189743Y0108348D02*
X0188500Y0108348D01*
X0188500Y0107350D02*
X0189550Y0107350D01*
X0189550Y0106351D02*
X0188500Y0106351D01*
X0188500Y0105353D02*
X0189550Y0105353D01*
X0189866Y0104354D02*
X0188500Y0104354D01*
X0188500Y0103356D02*
X0190280Y0103356D01*
X0190814Y0102357D02*
X0188500Y0102357D01*
X0188500Y0101359D02*
X0191813Y0101359D01*
X0193162Y0100360D02*
X0188500Y0100360D01*
X0188500Y0099362D02*
X0203700Y0099362D01*
X0203700Y0100360D02*
X0199838Y0100360D01*
X0201187Y0101359D02*
X0203700Y0101359D01*
X0203700Y0102357D02*
X0202186Y0102357D01*
X0202720Y0103356D02*
X0203700Y0103356D01*
X0203700Y0104354D02*
X0203134Y0104354D01*
X0203450Y0105353D02*
X0203700Y0105353D01*
X0203700Y0106351D02*
X0203450Y0106351D01*
X0203450Y0107350D02*
X0203700Y0107350D01*
X0203700Y0108348D02*
X0203257Y0108348D01*
X0202843Y0109347D02*
X0203700Y0109347D01*
X0203700Y0110345D02*
X0202430Y0110345D01*
X0201485Y0111344D02*
X0203700Y0111344D01*
X0203700Y0112342D02*
X0200487Y0112342D01*
X0198146Y0113341D02*
X0203700Y0113341D01*
X0203700Y0098363D02*
X0188500Y0098363D01*
X0188500Y0097365D02*
X0203700Y0097365D01*
X0203700Y0096366D02*
X0188500Y0096366D01*
X0188500Y0095368D02*
X0203700Y0095368D01*
X0203700Y0094369D02*
X0188500Y0094369D01*
X0188500Y0093370D02*
X0203700Y0093370D01*
X0203700Y0092372D02*
X0188500Y0092372D01*
X0188500Y0091373D02*
X0203700Y0091373D01*
X0203700Y0090375D02*
X0188500Y0090375D01*
X0188500Y0089376D02*
X0203700Y0089376D01*
X0203700Y0088378D02*
X0188500Y0088378D01*
X0188500Y0087379D02*
X0203700Y0087379D01*
X0203700Y0086381D02*
X0188500Y0086381D01*
X0188500Y0085382D02*
X0203700Y0085382D01*
X0203700Y0084384D02*
X0188500Y0084384D01*
X0188500Y0083385D02*
X0203700Y0083385D01*
X0203700Y0082387D02*
X0188500Y0082387D01*
X0188500Y0081388D02*
X0203700Y0081388D01*
X0203700Y0080390D02*
X0188500Y0080390D01*
X0188500Y0079391D02*
X0203700Y0079391D01*
X0203700Y0078393D02*
X0188500Y0078393D01*
X0188500Y0077394D02*
X0203700Y0077394D01*
X0203700Y0076396D02*
X0188500Y0076396D01*
X0188500Y0075397D02*
X0203700Y0075397D01*
X0203700Y0074399D02*
X0188500Y0074399D01*
X0188500Y0073400D02*
X0203700Y0073400D01*
X0203700Y0072402D02*
X0188500Y0072402D01*
X0188500Y0071403D02*
X0203700Y0071403D01*
X0203700Y0070405D02*
X0188500Y0070405D01*
X0188500Y0069406D02*
X0203700Y0069406D01*
X0203700Y0068408D02*
X0188500Y0068408D01*
X0188500Y0067409D02*
X0203700Y0067409D01*
X0203700Y0066411D02*
X0188500Y0066411D01*
X0188500Y0065412D02*
X0203700Y0065412D01*
X0203700Y0064414D02*
X0188500Y0064414D01*
X0188500Y0063415D02*
X0203700Y0063415D01*
X0203700Y0062417D02*
X0188500Y0062417D01*
X0188500Y0061418D02*
X0203700Y0061418D01*
X0203700Y0060420D02*
X0188500Y0060420D01*
X0188500Y0059421D02*
X0203700Y0059421D01*
X0203700Y0058423D02*
X0188500Y0058423D01*
X0188500Y0057424D02*
X0203700Y0057424D01*
X0203700Y0056426D02*
X0188500Y0056426D01*
X0188500Y0055427D02*
X0203700Y0055427D01*
X0203700Y0054429D02*
X0188500Y0054429D01*
X0188500Y0053430D02*
X0203700Y0053430D01*
X0203700Y0052432D02*
X0188500Y0052432D01*
X0188500Y0051433D02*
X0203700Y0051433D01*
X0203700Y0050434D02*
X0188500Y0050434D01*
X0188500Y0049436D02*
X0203700Y0049436D01*
X0203700Y0048437D02*
X0188500Y0048437D01*
X0188500Y0047439D02*
X0203700Y0047439D01*
X0203700Y0046440D02*
X0188500Y0046440D01*
X0188500Y0045442D02*
X0203700Y0045442D01*
X0203700Y0044443D02*
X0188500Y0044443D01*
X0188500Y0043445D02*
X0203700Y0043445D01*
X0203700Y0042446D02*
X0188500Y0042446D01*
X0188500Y0041448D02*
X0203700Y0041448D01*
X0203700Y0040449D02*
X0188500Y0040449D01*
X0188500Y0039451D02*
X0203700Y0039451D01*
X0203700Y0038452D02*
X0188500Y0038452D01*
X0188500Y0037454D02*
X0203700Y0037454D01*
X0203700Y0036455D02*
X0188500Y0036455D01*
X0188500Y0035457D02*
X0203700Y0035457D01*
X0203700Y0034458D02*
X0188500Y0034458D01*
X0188500Y0033460D02*
X0203700Y0033460D01*
X0203700Y0032461D02*
X0188500Y0032461D01*
X0188500Y0031463D02*
X0203700Y0031463D01*
X0203700Y0030464D02*
X0188500Y0030464D01*
X0188500Y0029466D02*
X0203700Y0029466D01*
X0203700Y0028467D02*
X0188500Y0028467D01*
X0188500Y0027469D02*
X0203700Y0027469D01*
X0203700Y0026470D02*
X0188500Y0026470D01*
X0188300Y0025472D02*
X0203700Y0025472D01*
X0203700Y0024473D02*
X0187302Y0024473D01*
X0186303Y0023475D02*
X0203700Y0023475D01*
X0203700Y0022476D02*
X0185305Y0022476D01*
X0184306Y0021478D02*
X0203700Y0021478D01*
X0203700Y0020479D02*
X0183308Y0020479D01*
X0182309Y0019481D02*
X0203700Y0019481D01*
X0203700Y0018482D02*
X0181311Y0018482D01*
X0180312Y0017484D02*
X0203700Y0017484D01*
X0203700Y0016485D02*
X0179314Y0016485D01*
X0178315Y0015487D02*
X0203700Y0015487D01*
X0203700Y0014488D02*
X0177316Y0014488D01*
X0176318Y0013490D02*
X0203700Y0013490D01*
X0203531Y0012491D02*
X0175319Y0012491D01*
X0174321Y0011493D02*
X0202533Y0011493D01*
X0201534Y0010494D02*
X0173322Y0010494D01*
X0200536Y0009496D02*
X0012464Y0009496D01*
X0011466Y0010494D02*
X0102838Y0010494D01*
X0101679Y0011493D02*
X0010467Y0011493D01*
X0009469Y0012491D02*
X0100680Y0012491D01*
X0100224Y0013490D02*
X0009300Y0013490D01*
X0009300Y0014488D02*
X0099811Y0014488D01*
X0099550Y0015487D02*
X0009300Y0015487D01*
X0009300Y0016485D02*
X0099550Y0016485D01*
X0099550Y0017484D02*
X0009300Y0017484D01*
X0009300Y0018482D02*
X0099798Y0018482D01*
X0100212Y0019481D02*
X0009300Y0019481D01*
X0009300Y0020479D02*
X0100650Y0020479D01*
X0110233Y0022476D02*
X0127695Y0022476D01*
X0128694Y0021478D02*
X0111351Y0021478D01*
X0112350Y0020479D02*
X0129692Y0020479D01*
X0130691Y0019481D02*
X0112788Y0019481D01*
X0113202Y0018482D02*
X0131689Y0018482D01*
X0132688Y0017484D02*
X0113450Y0017484D01*
X0113450Y0016485D02*
X0133686Y0016485D01*
X0134685Y0015487D02*
X0113450Y0015487D01*
X0113189Y0014488D02*
X0135683Y0014488D01*
X0136682Y0013490D02*
X0112776Y0013490D01*
X0112320Y0012491D02*
X0137680Y0012491D01*
X0138679Y0011493D02*
X0111321Y0011493D01*
X0110162Y0010494D02*
X0139678Y0010494D01*
X0130500Y0042000D02*
X0170000Y0041500D01*
X0170000Y0086500D01*
X0146500Y0086500D01*
X0121500Y0111500D01*
X0031500Y0111500D01*
X0031500Y0071500D01*
X0048713Y0071500D01*
X0047646Y0072567D01*
X0046237Y0072567D01*
X0044950Y0073100D01*
X0039517Y0078533D01*
X0038533Y0079517D01*
X0038000Y0080804D01*
X0038000Y0104696D01*
X0038533Y0105983D01*
X0039517Y0106967D01*
X0040804Y0107500D01*
X0119696Y0107500D01*
X0120983Y0106967D01*
X0146250Y0081700D01*
X0148654Y0081700D01*
X0150354Y0080000D01*
X0152646Y0080000D01*
X0154346Y0081700D01*
X0158654Y0081700D01*
X0161700Y0078654D01*
X0161700Y0074346D01*
X0158854Y0071500D01*
X0161700Y0068654D01*
X0161700Y0066250D01*
X0166967Y0060983D01*
X0167500Y0059696D01*
X0167500Y0048804D01*
X0166967Y0047517D01*
X0165983Y0046533D01*
X0162983Y0043533D01*
X0161696Y0043000D01*
X0135804Y0043000D01*
X0134517Y0043533D01*
X0095641Y0082409D01*
X0055354Y0082409D01*
X0053933Y0080988D01*
X0056700Y0078221D01*
X0056700Y0073913D01*
X0054287Y0071500D01*
X0101500Y0071500D01*
X0130500Y0042000D01*
X0130061Y0042446D02*
X0170000Y0042446D01*
X0170000Y0043445D02*
X0162770Y0043445D01*
X0163893Y0044443D02*
X0170000Y0044443D01*
X0170000Y0045442D02*
X0164892Y0045442D01*
X0165890Y0046440D02*
X0170000Y0046440D01*
X0170000Y0047439D02*
X0166889Y0047439D01*
X0167348Y0048437D02*
X0170000Y0048437D01*
X0170000Y0049436D02*
X0167500Y0049436D01*
X0167500Y0050434D02*
X0170000Y0050434D01*
X0170000Y0051433D02*
X0167500Y0051433D01*
X0167500Y0052432D02*
X0170000Y0052432D01*
X0170000Y0053430D02*
X0167500Y0053430D01*
X0167500Y0054429D02*
X0170000Y0054429D01*
X0170000Y0055427D02*
X0167500Y0055427D01*
X0167500Y0056426D02*
X0170000Y0056426D01*
X0170000Y0057424D02*
X0167500Y0057424D01*
X0167500Y0058423D02*
X0170000Y0058423D01*
X0170000Y0059421D02*
X0167500Y0059421D01*
X0167200Y0060420D02*
X0170000Y0060420D01*
X0170000Y0061418D02*
X0166532Y0061418D01*
X0165533Y0062417D02*
X0170000Y0062417D01*
X0170000Y0063415D02*
X0164535Y0063415D01*
X0163536Y0064414D02*
X0170000Y0064414D01*
X0170000Y0065412D02*
X0162538Y0065412D01*
X0161700Y0066411D02*
X0170000Y0066411D01*
X0170000Y0067409D02*
X0161700Y0067409D01*
X0161700Y0068408D02*
X0170000Y0068408D01*
X0170000Y0069406D02*
X0160948Y0069406D01*
X0159949Y0070405D02*
X0170000Y0070405D01*
X0170000Y0071403D02*
X0158951Y0071403D01*
X0159756Y0072402D02*
X0170000Y0072402D01*
X0170000Y0073400D02*
X0160754Y0073400D01*
X0161700Y0074399D02*
X0170000Y0074399D01*
X0170000Y0075397D02*
X0161700Y0075397D01*
X0161700Y0076396D02*
X0170000Y0076396D01*
X0170000Y0077394D02*
X0161700Y0077394D01*
X0161700Y0078393D02*
X0170000Y0078393D01*
X0170000Y0079391D02*
X0160963Y0079391D01*
X0159964Y0080390D02*
X0170000Y0080390D01*
X0170000Y0081388D02*
X0158966Y0081388D01*
X0154034Y0081388D02*
X0148966Y0081388D01*
X0149964Y0080390D02*
X0153036Y0080390D01*
X0152646Y0073000D02*
X0150354Y0073000D01*
X0148854Y0071500D01*
X0150354Y0070000D01*
X0152646Y0070000D01*
X0154146Y0071500D01*
X0152646Y0073000D01*
X0153244Y0072402D02*
X0149756Y0072402D01*
X0148951Y0071403D02*
X0154049Y0071403D01*
X0153051Y0070405D02*
X0149949Y0070405D01*
X0144146Y0071500D02*
X0141300Y0068654D01*
X0141300Y0064346D01*
X0144146Y0061500D01*
X0142646Y0060000D01*
X0137950Y0060000D01*
X0099231Y0098719D01*
X0097944Y0099252D01*
X0055354Y0099252D01*
X0054106Y0100500D01*
X0117550Y0100500D01*
X0141300Y0076750D01*
X0141300Y0074346D01*
X0144146Y0071500D01*
X0144049Y0071403D02*
X0126546Y0071403D01*
X0125548Y0072402D02*
X0143244Y0072402D01*
X0142246Y0073400D02*
X0124549Y0073400D01*
X0123551Y0074399D02*
X0141300Y0074399D01*
X0141300Y0075397D02*
X0122552Y0075397D01*
X0121554Y0076396D02*
X0141300Y0076396D01*
X0140656Y0077394D02*
X0120555Y0077394D01*
X0119557Y0078393D02*
X0139657Y0078393D01*
X0138659Y0079391D02*
X0118558Y0079391D01*
X0117560Y0080390D02*
X0137660Y0080390D01*
X0136662Y0081388D02*
X0116561Y0081388D01*
X0115563Y0082387D02*
X0135663Y0082387D01*
X0134665Y0083385D02*
X0114564Y0083385D01*
X0113566Y0084384D02*
X0133666Y0084384D01*
X0132668Y0085382D02*
X0112567Y0085382D01*
X0111569Y0086381D02*
X0131669Y0086381D01*
X0130671Y0087379D02*
X0110570Y0087379D01*
X0109572Y0088378D02*
X0129672Y0088378D01*
X0128674Y0089376D02*
X0108573Y0089376D01*
X0107575Y0090375D02*
X0127675Y0090375D01*
X0126677Y0091373D02*
X0106576Y0091373D01*
X0105578Y0092372D02*
X0125678Y0092372D01*
X0124680Y0093370D02*
X0104579Y0093370D01*
X0103581Y0094369D02*
X0123681Y0094369D01*
X0122683Y0095368D02*
X0102582Y0095368D01*
X0101584Y0096366D02*
X0121684Y0096366D01*
X0120686Y0097365D02*
X0100585Y0097365D01*
X0099587Y0098363D02*
X0119687Y0098363D01*
X0118689Y0099362D02*
X0055244Y0099362D01*
X0054246Y0100360D02*
X0117690Y0100360D01*
X0122597Y0105353D02*
X0127647Y0105353D01*
X0126649Y0106351D02*
X0121599Y0106351D01*
X0120059Y0107350D02*
X0125650Y0107350D01*
X0124652Y0108348D02*
X0031500Y0108348D01*
X0031500Y0107350D02*
X0040441Y0107350D01*
X0038901Y0106351D02*
X0031500Y0106351D01*
X0031500Y0105353D02*
X0038272Y0105353D01*
X0038000Y0104354D02*
X0031500Y0104354D01*
X0031500Y0103356D02*
X0038000Y0103356D01*
X0038000Y0102357D02*
X0031500Y0102357D01*
X0031500Y0101359D02*
X0038000Y0101359D01*
X0038000Y0100360D02*
X0031500Y0100360D01*
X0031500Y0099362D02*
X0038000Y0099362D01*
X0038000Y0098363D02*
X0031500Y0098363D01*
X0031500Y0097365D02*
X0038000Y0097365D01*
X0038000Y0096366D02*
X0031500Y0096366D01*
X0031500Y0095368D02*
X0038000Y0095368D01*
X0038000Y0094369D02*
X0031500Y0094369D01*
X0031500Y0093370D02*
X0038000Y0093370D01*
X0038000Y0092372D02*
X0031500Y0092372D01*
X0031500Y0091373D02*
X0038000Y0091373D01*
X0038000Y0090375D02*
X0031500Y0090375D01*
X0031500Y0089376D02*
X0038000Y0089376D01*
X0038000Y0088378D02*
X0031500Y0088378D01*
X0031500Y0087379D02*
X0038000Y0087379D01*
X0038000Y0086381D02*
X0031500Y0086381D01*
X0031500Y0085382D02*
X0038000Y0085382D01*
X0038000Y0084384D02*
X0031500Y0084384D01*
X0031500Y0083385D02*
X0038000Y0083385D01*
X0038000Y0082387D02*
X0031500Y0082387D01*
X0031500Y0081388D02*
X0038000Y0081388D01*
X0038171Y0080390D02*
X0031500Y0080390D01*
X0031500Y0079391D02*
X0038659Y0079391D01*
X0039657Y0078393D02*
X0031500Y0078393D01*
X0031500Y0077394D02*
X0040656Y0077394D01*
X0041654Y0076396D02*
X0031500Y0076396D01*
X0031500Y0075397D02*
X0042653Y0075397D01*
X0043651Y0074399D02*
X0031500Y0074399D01*
X0031500Y0073400D02*
X0044650Y0073400D01*
X0047811Y0072402D02*
X0031500Y0072402D01*
X0029500Y0072402D02*
X0009300Y0072402D01*
X0009300Y0073400D02*
X0029500Y0073400D01*
X0029500Y0074399D02*
X0009300Y0074399D01*
X0009300Y0075397D02*
X0029500Y0075397D01*
X0029500Y0076396D02*
X0009300Y0076396D01*
X0009300Y0077394D02*
X0029500Y0077394D01*
X0029500Y0078393D02*
X0009300Y0078393D01*
X0009300Y0079391D02*
X0029500Y0079391D01*
X0029500Y0080390D02*
X0009300Y0080390D01*
X0009300Y0081388D02*
X0029500Y0081388D01*
X0029500Y0082387D02*
X0009300Y0082387D01*
X0009300Y0083385D02*
X0029500Y0083385D01*
X0029500Y0084384D02*
X0009300Y0084384D01*
X0009300Y0085382D02*
X0029500Y0085382D01*
X0029500Y0086381D02*
X0009300Y0086381D01*
X0009300Y0087379D02*
X0029500Y0087379D01*
X0029500Y0088378D02*
X0009300Y0088378D01*
X0009300Y0089376D02*
X0029500Y0089376D01*
X0029500Y0090375D02*
X0009300Y0090375D01*
X0009300Y0091373D02*
X0029500Y0091373D01*
X0029500Y0092372D02*
X0009300Y0092372D01*
X0009300Y0093370D02*
X0029500Y0093370D01*
X0029500Y0094369D02*
X0009300Y0094369D01*
X0009300Y0095368D02*
X0029500Y0095368D01*
X0029500Y0096366D02*
X0009300Y0096366D01*
X0009300Y0097365D02*
X0029500Y0097365D01*
X0029500Y0098363D02*
X0009300Y0098363D01*
X0009300Y0099362D02*
X0029500Y0099362D01*
X0029500Y0100360D02*
X0019838Y0100360D01*
X0020437Y0100608D02*
X0022392Y0102563D01*
X0023450Y0105118D01*
X0023450Y0107882D01*
X0022392Y0110437D01*
X0020437Y0112392D01*
X0017882Y0113450D01*
X0015118Y0113450D01*
X0012563Y0112392D01*
X0010608Y0110437D01*
X0009550Y0107882D01*
X0009550Y0105118D01*
X0010608Y0102563D01*
X0012563Y0100608D01*
X0015118Y0099550D01*
X0017882Y0099550D01*
X0020437Y0100608D01*
X0021187Y0101359D02*
X0029500Y0101359D01*
X0029500Y0102357D02*
X0022186Y0102357D01*
X0022720Y0103356D02*
X0029500Y0103356D01*
X0029500Y0104354D02*
X0023134Y0104354D01*
X0023450Y0105353D02*
X0029500Y0105353D01*
X0029500Y0106351D02*
X0023450Y0106351D01*
X0023450Y0107350D02*
X0029500Y0107350D01*
X0029500Y0108348D02*
X0023257Y0108348D01*
X0022843Y0109347D02*
X0029500Y0109347D01*
X0029500Y0110345D02*
X0022430Y0110345D01*
X0021485Y0111344D02*
X0029500Y0111344D01*
X0029514Y0112342D02*
X0020487Y0112342D01*
X0018146Y0113341D02*
X0030512Y0113341D01*
X0031500Y0111344D02*
X0121656Y0111344D01*
X0122655Y0110345D02*
X0031500Y0110345D01*
X0031500Y0109347D02*
X0123653Y0109347D01*
X0125483Y0110345D02*
X0171500Y0110345D01*
X0171500Y0109347D02*
X0126482Y0109347D01*
X0127480Y0108348D02*
X0171500Y0108348D01*
X0171500Y0107350D02*
X0128479Y0107350D01*
X0129477Y0106351D02*
X0171500Y0106351D01*
X0171500Y0105353D02*
X0130476Y0105353D01*
X0131474Y0104354D02*
X0171500Y0104354D01*
X0171500Y0103356D02*
X0132473Y0103356D01*
X0133471Y0102357D02*
X0171500Y0102357D01*
X0171500Y0101359D02*
X0134470Y0101359D01*
X0135468Y0100360D02*
X0171500Y0100360D01*
X0171500Y0099362D02*
X0136467Y0099362D01*
X0137465Y0098363D02*
X0171500Y0098363D01*
X0171500Y0097365D02*
X0138464Y0097365D01*
X0139462Y0096366D02*
X0171500Y0096366D01*
X0171500Y0095368D02*
X0140461Y0095368D01*
X0141459Y0094369D02*
X0171500Y0094369D01*
X0171500Y0093370D02*
X0142458Y0093370D01*
X0143456Y0092372D02*
X0171500Y0092372D01*
X0171500Y0091373D02*
X0144455Y0091373D01*
X0145453Y0090375D02*
X0171500Y0090375D01*
X0171500Y0089376D02*
X0146452Y0089376D01*
X0144622Y0088378D02*
X0139572Y0088378D01*
X0140570Y0087379D02*
X0145621Y0087379D01*
X0143624Y0089376D02*
X0138573Y0089376D01*
X0137575Y0090375D02*
X0142625Y0090375D01*
X0141627Y0091373D02*
X0136576Y0091373D01*
X0135578Y0092372D02*
X0140628Y0092372D01*
X0139630Y0093370D02*
X0134579Y0093370D01*
X0133581Y0094369D02*
X0138631Y0094369D01*
X0137632Y0095368D02*
X0132582Y0095368D01*
X0131584Y0096366D02*
X0136634Y0096366D01*
X0135635Y0097365D02*
X0130585Y0097365D01*
X0129587Y0098363D02*
X0134637Y0098363D01*
X0133638Y0099362D02*
X0128588Y0099362D01*
X0127590Y0100360D02*
X0132640Y0100360D01*
X0131641Y0101359D02*
X0126591Y0101359D01*
X0125593Y0102357D02*
X0130643Y0102357D01*
X0129644Y0103356D02*
X0124594Y0103356D01*
X0123596Y0104354D02*
X0128646Y0104354D01*
X0124485Y0111344D02*
X0171500Y0111344D01*
X0171500Y0112342D02*
X0123486Y0112342D01*
X0122488Y0113341D02*
X0171500Y0113341D01*
X0171500Y0114339D02*
X0009300Y0114339D01*
X0009300Y0113341D02*
X0014854Y0113341D01*
X0012513Y0112342D02*
X0009300Y0112342D01*
X0009300Y0111344D02*
X0011515Y0111344D01*
X0010570Y0110345D02*
X0009300Y0110345D01*
X0009300Y0109347D02*
X0010157Y0109347D01*
X0009743Y0108348D02*
X0009300Y0108348D01*
X0009300Y0107350D02*
X0009550Y0107350D01*
X0009550Y0106351D02*
X0009300Y0106351D01*
X0009300Y0105353D02*
X0009550Y0105353D01*
X0009300Y0104354D02*
X0009866Y0104354D01*
X0010280Y0103356D02*
X0009300Y0103356D01*
X0009300Y0102357D02*
X0010814Y0102357D01*
X0011813Y0101359D02*
X0009300Y0101359D01*
X0009300Y0100360D02*
X0013162Y0100360D01*
X0009300Y0115338D02*
X0171500Y0115338D01*
X0171500Y0116336D02*
X0009300Y0116336D01*
X0009300Y0117335D02*
X0171500Y0117335D01*
X0171500Y0118333D02*
X0009300Y0118333D01*
X0045000Y0100500D02*
X0045000Y0082950D01*
X0048014Y0079935D01*
X0049067Y0080988D01*
X0046300Y0083756D01*
X0046300Y0088063D01*
X0049067Y0090831D01*
X0046300Y0093598D01*
X0046300Y0097906D01*
X0048894Y0100500D01*
X0045000Y0100500D01*
X0045000Y0100360D02*
X0048754Y0100360D01*
X0047756Y0099362D02*
X0045000Y0099362D01*
X0045000Y0098363D02*
X0046757Y0098363D01*
X0046300Y0097365D02*
X0045000Y0097365D01*
X0045000Y0096366D02*
X0046300Y0096366D01*
X0046300Y0095368D02*
X0045000Y0095368D01*
X0045000Y0094369D02*
X0046300Y0094369D01*
X0046528Y0093370D02*
X0045000Y0093370D01*
X0045000Y0092372D02*
X0047526Y0092372D01*
X0048525Y0091373D02*
X0045000Y0091373D01*
X0045000Y0090375D02*
X0048612Y0090375D01*
X0047613Y0089376D02*
X0045000Y0089376D01*
X0045000Y0088378D02*
X0046615Y0088378D01*
X0046300Y0087379D02*
X0045000Y0087379D01*
X0045000Y0086381D02*
X0046300Y0086381D01*
X0046300Y0085382D02*
X0045000Y0085382D01*
X0045000Y0084384D02*
X0046300Y0084384D01*
X0046670Y0083385D02*
X0045000Y0083385D01*
X0045563Y0082387D02*
X0047669Y0082387D01*
X0048667Y0081388D02*
X0046561Y0081388D01*
X0047560Y0080390D02*
X0048469Y0080390D01*
X0054333Y0081388D02*
X0096662Y0081388D01*
X0097660Y0080390D02*
X0054531Y0080390D01*
X0055529Y0079391D02*
X0098659Y0079391D01*
X0099657Y0078393D02*
X0056528Y0078393D01*
X0056700Y0077394D02*
X0100656Y0077394D01*
X0101654Y0076396D02*
X0056700Y0076396D01*
X0056700Y0075397D02*
X0102653Y0075397D01*
X0103651Y0074399D02*
X0056700Y0074399D01*
X0056187Y0073400D02*
X0104650Y0073400D01*
X0105648Y0072402D02*
X0055189Y0072402D01*
X0057724Y0066000D02*
X0051500Y0066224D01*
X0055046Y0062417D02*
X0057555Y0062417D01*
X0056951Y0063415D02*
X0056045Y0063415D01*
X0054048Y0061418D02*
X0058160Y0061418D01*
X0058764Y0060420D02*
X0054816Y0060420D01*
X0055815Y0059421D02*
X0059368Y0059421D01*
X0059973Y0058423D02*
X0056700Y0058423D01*
X0057724Y0066000D02*
X0066500Y0051500D01*
X0073500Y0036500D01*
X0048184Y0060420D02*
X0009300Y0060420D01*
X0009300Y0061418D02*
X0048952Y0061418D01*
X0047954Y0062417D02*
X0009300Y0062417D01*
X0009300Y0063415D02*
X0046955Y0063415D01*
X0046300Y0064414D02*
X0009300Y0064414D01*
X0009300Y0065412D02*
X0046300Y0065412D01*
X0046300Y0066411D02*
X0009300Y0066411D01*
X0009300Y0067409D02*
X0046300Y0067409D01*
X0046329Y0068408D02*
X0009300Y0068408D01*
X0009300Y0069406D02*
X0047328Y0069406D01*
X0047185Y0059421D02*
X0009300Y0059421D01*
X0009300Y0058423D02*
X0046300Y0058423D01*
X0046300Y0057424D02*
X0009300Y0057424D01*
X0009300Y0070405D02*
X0029767Y0070405D01*
X0029500Y0071403D02*
X0009300Y0071403D01*
X0053933Y0090831D02*
X0055354Y0092252D01*
X0095798Y0092252D01*
X0133533Y0054517D01*
X0134517Y0053533D01*
X0135804Y0053000D01*
X0142646Y0053000D01*
X0144346Y0051300D01*
X0148654Y0051300D01*
X0150354Y0053000D01*
X0152646Y0053000D01*
X0154346Y0051300D01*
X0158654Y0051300D01*
X0160500Y0053146D01*
X0160500Y0050950D01*
X0159550Y0050000D01*
X0137950Y0050000D01*
X0099073Y0088877D01*
X0097787Y0089409D01*
X0096394Y0089409D01*
X0055354Y0089409D01*
X0053933Y0090831D01*
X0054388Y0090375D02*
X0097675Y0090375D01*
X0097866Y0089376D02*
X0098674Y0089376D01*
X0099572Y0088378D02*
X0099672Y0088378D01*
X0100570Y0087379D02*
X0100671Y0087379D01*
X0101569Y0086381D02*
X0101669Y0086381D01*
X0102567Y0085382D02*
X0102668Y0085382D01*
X0103566Y0084384D02*
X0103666Y0084384D01*
X0104564Y0083385D02*
X0104665Y0083385D01*
X0105563Y0082387D02*
X0105663Y0082387D01*
X0106561Y0081388D02*
X0106662Y0081388D01*
X0107560Y0080390D02*
X0107660Y0080390D01*
X0108558Y0079391D02*
X0108659Y0079391D01*
X0109557Y0078393D02*
X0109657Y0078393D01*
X0110555Y0077394D02*
X0110656Y0077394D01*
X0111554Y0076396D02*
X0111654Y0076396D01*
X0112552Y0075397D02*
X0112653Y0075397D01*
X0113551Y0074399D02*
X0113651Y0074399D01*
X0114549Y0073400D02*
X0114650Y0073400D01*
X0115548Y0072402D02*
X0115648Y0072402D01*
X0116546Y0071403D02*
X0116647Y0071403D01*
X0117545Y0070405D02*
X0117646Y0070405D01*
X0118544Y0069406D02*
X0118644Y0069406D01*
X0119542Y0068408D02*
X0119643Y0068408D01*
X0120541Y0067409D02*
X0120641Y0067409D01*
X0121539Y0066411D02*
X0121640Y0066411D01*
X0122538Y0065412D02*
X0122638Y0065412D01*
X0123536Y0064414D02*
X0123637Y0064414D01*
X0124535Y0063415D02*
X0124635Y0063415D01*
X0125533Y0062417D02*
X0125634Y0062417D01*
X0126532Y0061418D02*
X0126632Y0061418D01*
X0127530Y0060420D02*
X0127631Y0060420D01*
X0128529Y0059421D02*
X0128629Y0059421D01*
X0129527Y0058423D02*
X0129628Y0058423D01*
X0130526Y0057424D02*
X0130626Y0057424D01*
X0131524Y0056426D02*
X0131625Y0056426D01*
X0132523Y0055427D02*
X0132623Y0055427D01*
X0133521Y0054429D02*
X0133622Y0054429D01*
X0134520Y0053430D02*
X0134766Y0053430D01*
X0135518Y0052432D02*
X0143215Y0052432D01*
X0144213Y0051433D02*
X0136517Y0051433D01*
X0137515Y0050434D02*
X0159985Y0050434D01*
X0160500Y0051433D02*
X0158787Y0051433D01*
X0159785Y0052432D02*
X0160500Y0052432D01*
X0154213Y0051433D02*
X0148787Y0051433D01*
X0149785Y0052432D02*
X0153215Y0052432D01*
X0152646Y0060000D02*
X0150354Y0060000D01*
X0148854Y0061500D01*
X0150354Y0063000D01*
X0152646Y0063000D01*
X0154146Y0061500D01*
X0152646Y0060000D01*
X0153066Y0060420D02*
X0149934Y0060420D01*
X0148936Y0061418D02*
X0154064Y0061418D01*
X0153229Y0062417D02*
X0149771Y0062417D01*
X0144064Y0061418D02*
X0136532Y0061418D01*
X0137530Y0060420D02*
X0143066Y0060420D01*
X0143229Y0062417D02*
X0135533Y0062417D01*
X0134535Y0063415D02*
X0142231Y0063415D01*
X0141300Y0064414D02*
X0133536Y0064414D01*
X0132538Y0065412D02*
X0141300Y0065412D01*
X0141300Y0066411D02*
X0131539Y0066411D01*
X0130541Y0067409D02*
X0141300Y0067409D01*
X0141300Y0068408D02*
X0129542Y0068408D01*
X0128544Y0069406D02*
X0142052Y0069406D01*
X0143051Y0070405D02*
X0127545Y0070405D01*
X0116632Y0061418D02*
X0111411Y0061418D01*
X0112393Y0060420D02*
X0117631Y0060420D01*
X0118629Y0059421D02*
X0113374Y0059421D01*
X0114356Y0058423D02*
X0119628Y0058423D01*
X0120626Y0057424D02*
X0115337Y0057424D01*
X0116319Y0056426D02*
X0121625Y0056426D01*
X0122623Y0055427D02*
X0117301Y0055427D01*
X0118282Y0054429D02*
X0123622Y0054429D01*
X0124620Y0053430D02*
X0119264Y0053430D01*
X0120245Y0052432D02*
X0125619Y0052432D01*
X0126617Y0051433D02*
X0121227Y0051433D01*
X0122208Y0050434D02*
X0127616Y0050434D01*
X0128614Y0049436D02*
X0123190Y0049436D01*
X0124172Y0048437D02*
X0129613Y0048437D01*
X0130611Y0047439D02*
X0125153Y0047439D01*
X0126135Y0046440D02*
X0131610Y0046440D01*
X0132608Y0045442D02*
X0127116Y0045442D01*
X0128098Y0044443D02*
X0133607Y0044443D01*
X0134730Y0043445D02*
X0129080Y0043445D01*
X0115634Y0062417D02*
X0110429Y0062417D01*
X0109448Y0063415D02*
X0114635Y0063415D01*
X0113637Y0064414D02*
X0108466Y0064414D01*
X0107485Y0065412D02*
X0112638Y0065412D01*
X0111640Y0066411D02*
X0106503Y0066411D01*
X0105521Y0067409D02*
X0110641Y0067409D01*
X0109643Y0068408D02*
X0104540Y0068408D01*
X0103558Y0069406D02*
X0108644Y0069406D01*
X0107646Y0070405D02*
X0102577Y0070405D01*
X0101595Y0071403D02*
X0106647Y0071403D01*
X0095663Y0082387D02*
X0055331Y0082387D01*
X0054475Y0091373D02*
X0096677Y0091373D01*
X0141569Y0086381D02*
X0170000Y0086381D01*
X0170000Y0085382D02*
X0142567Y0085382D01*
X0143566Y0084384D02*
X0170000Y0084384D01*
X0170000Y0083385D02*
X0144564Y0083385D01*
X0145563Y0082387D02*
X0170000Y0082387D01*
X0170950Y0088378D02*
X0171500Y0088378D01*
X0121500Y0141500D02*
X0116500Y0146500D01*
X0120535Y0145293D02*
X0147465Y0145293D01*
X0146466Y0144295D02*
X0121534Y0144295D01*
D15*
X0116500Y0146500D03*
X0106500Y0156500D03*
X0111500Y0161500D03*
X0051500Y0126500D03*
X0176500Y0191500D03*
D16*
X0119000Y0104000D02*
X0146500Y0076500D01*
X0156500Y0076500D01*
X0156500Y0066500D02*
X0146500Y0066500D01*
X0146500Y0056500D02*
X0156500Y0056500D01*
X0164000Y0059000D02*
X0164000Y0049500D01*
X0161000Y0046500D01*
X0136500Y0046500D01*
X0097091Y0085909D01*
X0051500Y0085909D01*
X0051500Y0076067D02*
X0046933Y0076067D01*
X0041500Y0081500D01*
X0041500Y0104000D01*
X0119000Y0104000D01*
X0097248Y0095752D02*
X0136500Y0056500D01*
X0146500Y0056500D01*
X0156500Y0066500D02*
X0164000Y0059000D01*
X0097248Y0095752D02*
X0051500Y0095752D01*
M02*
