G75*
%MOIN*%
%OFA0B0*%
%FSLAX25Y25*%
%IPPOS*%
%LPD*%
%AMOC8*
5,1,8,0,0,1.08239X$1,22.5*
%
%ADD10C,0.00600*%
%ADD11C,0.00000*%
D10*
X0006500Y0011500D02*
X0006500Y0201500D01*
X0011500Y0206500D01*
X0201500Y0206500D01*
X0206500Y0201500D01*
X0206500Y0011500D01*
X0201500Y0006500D01*
X0011500Y0006500D01*
X0006500Y0011500D01*
D11*
X0012050Y0106500D02*
X0012052Y0106633D01*
X0012058Y0106766D01*
X0012068Y0106899D01*
X0012082Y0107031D01*
X0012100Y0107163D01*
X0012122Y0107295D01*
X0012147Y0107425D01*
X0012177Y0107555D01*
X0012210Y0107684D01*
X0012248Y0107812D01*
X0012289Y0107938D01*
X0012334Y0108064D01*
X0012382Y0108188D01*
X0012435Y0108310D01*
X0012491Y0108431D01*
X0012550Y0108550D01*
X0012613Y0108667D01*
X0012680Y0108782D01*
X0012750Y0108896D01*
X0012823Y0109007D01*
X0012900Y0109116D01*
X0012980Y0109222D01*
X0013063Y0109326D01*
X0013149Y0109428D01*
X0013238Y0109527D01*
X0013330Y0109623D01*
X0013425Y0109716D01*
X0013522Y0109807D01*
X0013623Y0109895D01*
X0013725Y0109979D01*
X0013831Y0110061D01*
X0013939Y0110139D01*
X0014049Y0110214D01*
X0014161Y0110286D01*
X0014275Y0110354D01*
X0014391Y0110419D01*
X0014509Y0110480D01*
X0014629Y0110538D01*
X0014751Y0110592D01*
X0014874Y0110642D01*
X0014999Y0110689D01*
X0015125Y0110732D01*
X0015252Y0110771D01*
X0015380Y0110807D01*
X0015510Y0110838D01*
X0015640Y0110866D01*
X0015771Y0110890D01*
X0015903Y0110910D01*
X0016035Y0110926D01*
X0016167Y0110938D01*
X0016300Y0110946D01*
X0016433Y0110950D01*
X0016567Y0110950D01*
X0016700Y0110946D01*
X0016833Y0110938D01*
X0016965Y0110926D01*
X0017097Y0110910D01*
X0017229Y0110890D01*
X0017360Y0110866D01*
X0017490Y0110838D01*
X0017620Y0110807D01*
X0017748Y0110771D01*
X0017875Y0110732D01*
X0018001Y0110689D01*
X0018126Y0110642D01*
X0018249Y0110592D01*
X0018371Y0110538D01*
X0018491Y0110480D01*
X0018609Y0110419D01*
X0018725Y0110354D01*
X0018839Y0110286D01*
X0018951Y0110214D01*
X0019061Y0110139D01*
X0019169Y0110061D01*
X0019275Y0109979D01*
X0019377Y0109895D01*
X0019478Y0109807D01*
X0019575Y0109716D01*
X0019670Y0109623D01*
X0019762Y0109527D01*
X0019851Y0109428D01*
X0019937Y0109326D01*
X0020020Y0109222D01*
X0020100Y0109116D01*
X0020177Y0109007D01*
X0020250Y0108896D01*
X0020320Y0108782D01*
X0020387Y0108667D01*
X0020450Y0108550D01*
X0020509Y0108431D01*
X0020565Y0108310D01*
X0020618Y0108188D01*
X0020666Y0108064D01*
X0020711Y0107938D01*
X0020752Y0107812D01*
X0020790Y0107684D01*
X0020823Y0107555D01*
X0020853Y0107425D01*
X0020878Y0107295D01*
X0020900Y0107163D01*
X0020918Y0107031D01*
X0020932Y0106899D01*
X0020942Y0106766D01*
X0020948Y0106633D01*
X0020950Y0106500D01*
X0020948Y0106367D01*
X0020942Y0106234D01*
X0020932Y0106101D01*
X0020918Y0105969D01*
X0020900Y0105837D01*
X0020878Y0105705D01*
X0020853Y0105575D01*
X0020823Y0105445D01*
X0020790Y0105316D01*
X0020752Y0105188D01*
X0020711Y0105062D01*
X0020666Y0104936D01*
X0020618Y0104812D01*
X0020565Y0104690D01*
X0020509Y0104569D01*
X0020450Y0104450D01*
X0020387Y0104333D01*
X0020320Y0104218D01*
X0020250Y0104104D01*
X0020177Y0103993D01*
X0020100Y0103884D01*
X0020020Y0103778D01*
X0019937Y0103674D01*
X0019851Y0103572D01*
X0019762Y0103473D01*
X0019670Y0103377D01*
X0019575Y0103284D01*
X0019478Y0103193D01*
X0019377Y0103105D01*
X0019275Y0103021D01*
X0019169Y0102939D01*
X0019061Y0102861D01*
X0018951Y0102786D01*
X0018839Y0102714D01*
X0018725Y0102646D01*
X0018609Y0102581D01*
X0018491Y0102520D01*
X0018371Y0102462D01*
X0018249Y0102408D01*
X0018126Y0102358D01*
X0018001Y0102311D01*
X0017875Y0102268D01*
X0017748Y0102229D01*
X0017620Y0102193D01*
X0017490Y0102162D01*
X0017360Y0102134D01*
X0017229Y0102110D01*
X0017097Y0102090D01*
X0016965Y0102074D01*
X0016833Y0102062D01*
X0016700Y0102054D01*
X0016567Y0102050D01*
X0016433Y0102050D01*
X0016300Y0102054D01*
X0016167Y0102062D01*
X0016035Y0102074D01*
X0015903Y0102090D01*
X0015771Y0102110D01*
X0015640Y0102134D01*
X0015510Y0102162D01*
X0015380Y0102193D01*
X0015252Y0102229D01*
X0015125Y0102268D01*
X0014999Y0102311D01*
X0014874Y0102358D01*
X0014751Y0102408D01*
X0014629Y0102462D01*
X0014509Y0102520D01*
X0014391Y0102581D01*
X0014275Y0102646D01*
X0014161Y0102714D01*
X0014049Y0102786D01*
X0013939Y0102861D01*
X0013831Y0102939D01*
X0013725Y0103021D01*
X0013623Y0103105D01*
X0013522Y0103193D01*
X0013425Y0103284D01*
X0013330Y0103377D01*
X0013238Y0103473D01*
X0013149Y0103572D01*
X0013063Y0103674D01*
X0012980Y0103778D01*
X0012900Y0103884D01*
X0012823Y0103993D01*
X0012750Y0104104D01*
X0012680Y0104218D01*
X0012613Y0104333D01*
X0012550Y0104450D01*
X0012491Y0104569D01*
X0012435Y0104690D01*
X0012382Y0104812D01*
X0012334Y0104936D01*
X0012289Y0105062D01*
X0012248Y0105188D01*
X0012210Y0105316D01*
X0012177Y0105445D01*
X0012147Y0105575D01*
X0012122Y0105705D01*
X0012100Y0105837D01*
X0012082Y0105969D01*
X0012068Y0106101D01*
X0012058Y0106234D01*
X0012052Y0106367D01*
X0012050Y0106500D01*
X0102050Y0016500D02*
X0102052Y0016633D01*
X0102058Y0016766D01*
X0102068Y0016899D01*
X0102082Y0017031D01*
X0102100Y0017163D01*
X0102122Y0017295D01*
X0102147Y0017425D01*
X0102177Y0017555D01*
X0102210Y0017684D01*
X0102248Y0017812D01*
X0102289Y0017938D01*
X0102334Y0018064D01*
X0102382Y0018188D01*
X0102435Y0018310D01*
X0102491Y0018431D01*
X0102550Y0018550D01*
X0102613Y0018667D01*
X0102680Y0018782D01*
X0102750Y0018896D01*
X0102823Y0019007D01*
X0102900Y0019116D01*
X0102980Y0019222D01*
X0103063Y0019326D01*
X0103149Y0019428D01*
X0103238Y0019527D01*
X0103330Y0019623D01*
X0103425Y0019716D01*
X0103522Y0019807D01*
X0103623Y0019895D01*
X0103725Y0019979D01*
X0103831Y0020061D01*
X0103939Y0020139D01*
X0104049Y0020214D01*
X0104161Y0020286D01*
X0104275Y0020354D01*
X0104391Y0020419D01*
X0104509Y0020480D01*
X0104629Y0020538D01*
X0104751Y0020592D01*
X0104874Y0020642D01*
X0104999Y0020689D01*
X0105125Y0020732D01*
X0105252Y0020771D01*
X0105380Y0020807D01*
X0105510Y0020838D01*
X0105640Y0020866D01*
X0105771Y0020890D01*
X0105903Y0020910D01*
X0106035Y0020926D01*
X0106167Y0020938D01*
X0106300Y0020946D01*
X0106433Y0020950D01*
X0106567Y0020950D01*
X0106700Y0020946D01*
X0106833Y0020938D01*
X0106965Y0020926D01*
X0107097Y0020910D01*
X0107229Y0020890D01*
X0107360Y0020866D01*
X0107490Y0020838D01*
X0107620Y0020807D01*
X0107748Y0020771D01*
X0107875Y0020732D01*
X0108001Y0020689D01*
X0108126Y0020642D01*
X0108249Y0020592D01*
X0108371Y0020538D01*
X0108491Y0020480D01*
X0108609Y0020419D01*
X0108725Y0020354D01*
X0108839Y0020286D01*
X0108951Y0020214D01*
X0109061Y0020139D01*
X0109169Y0020061D01*
X0109275Y0019979D01*
X0109377Y0019895D01*
X0109478Y0019807D01*
X0109575Y0019716D01*
X0109670Y0019623D01*
X0109762Y0019527D01*
X0109851Y0019428D01*
X0109937Y0019326D01*
X0110020Y0019222D01*
X0110100Y0019116D01*
X0110177Y0019007D01*
X0110250Y0018896D01*
X0110320Y0018782D01*
X0110387Y0018667D01*
X0110450Y0018550D01*
X0110509Y0018431D01*
X0110565Y0018310D01*
X0110618Y0018188D01*
X0110666Y0018064D01*
X0110711Y0017938D01*
X0110752Y0017812D01*
X0110790Y0017684D01*
X0110823Y0017555D01*
X0110853Y0017425D01*
X0110878Y0017295D01*
X0110900Y0017163D01*
X0110918Y0017031D01*
X0110932Y0016899D01*
X0110942Y0016766D01*
X0110948Y0016633D01*
X0110950Y0016500D01*
X0110948Y0016367D01*
X0110942Y0016234D01*
X0110932Y0016101D01*
X0110918Y0015969D01*
X0110900Y0015837D01*
X0110878Y0015705D01*
X0110853Y0015575D01*
X0110823Y0015445D01*
X0110790Y0015316D01*
X0110752Y0015188D01*
X0110711Y0015062D01*
X0110666Y0014936D01*
X0110618Y0014812D01*
X0110565Y0014690D01*
X0110509Y0014569D01*
X0110450Y0014450D01*
X0110387Y0014333D01*
X0110320Y0014218D01*
X0110250Y0014104D01*
X0110177Y0013993D01*
X0110100Y0013884D01*
X0110020Y0013778D01*
X0109937Y0013674D01*
X0109851Y0013572D01*
X0109762Y0013473D01*
X0109670Y0013377D01*
X0109575Y0013284D01*
X0109478Y0013193D01*
X0109377Y0013105D01*
X0109275Y0013021D01*
X0109169Y0012939D01*
X0109061Y0012861D01*
X0108951Y0012786D01*
X0108839Y0012714D01*
X0108725Y0012646D01*
X0108609Y0012581D01*
X0108491Y0012520D01*
X0108371Y0012462D01*
X0108249Y0012408D01*
X0108126Y0012358D01*
X0108001Y0012311D01*
X0107875Y0012268D01*
X0107748Y0012229D01*
X0107620Y0012193D01*
X0107490Y0012162D01*
X0107360Y0012134D01*
X0107229Y0012110D01*
X0107097Y0012090D01*
X0106965Y0012074D01*
X0106833Y0012062D01*
X0106700Y0012054D01*
X0106567Y0012050D01*
X0106433Y0012050D01*
X0106300Y0012054D01*
X0106167Y0012062D01*
X0106035Y0012074D01*
X0105903Y0012090D01*
X0105771Y0012110D01*
X0105640Y0012134D01*
X0105510Y0012162D01*
X0105380Y0012193D01*
X0105252Y0012229D01*
X0105125Y0012268D01*
X0104999Y0012311D01*
X0104874Y0012358D01*
X0104751Y0012408D01*
X0104629Y0012462D01*
X0104509Y0012520D01*
X0104391Y0012581D01*
X0104275Y0012646D01*
X0104161Y0012714D01*
X0104049Y0012786D01*
X0103939Y0012861D01*
X0103831Y0012939D01*
X0103725Y0013021D01*
X0103623Y0013105D01*
X0103522Y0013193D01*
X0103425Y0013284D01*
X0103330Y0013377D01*
X0103238Y0013473D01*
X0103149Y0013572D01*
X0103063Y0013674D01*
X0102980Y0013778D01*
X0102900Y0013884D01*
X0102823Y0013993D01*
X0102750Y0014104D01*
X0102680Y0014218D01*
X0102613Y0014333D01*
X0102550Y0014450D01*
X0102491Y0014569D01*
X0102435Y0014690D01*
X0102382Y0014812D01*
X0102334Y0014936D01*
X0102289Y0015062D01*
X0102248Y0015188D01*
X0102210Y0015316D01*
X0102177Y0015445D01*
X0102147Y0015575D01*
X0102122Y0015705D01*
X0102100Y0015837D01*
X0102082Y0015969D01*
X0102068Y0016101D01*
X0102058Y0016234D01*
X0102052Y0016367D01*
X0102050Y0016500D01*
X0192050Y0106500D02*
X0192052Y0106633D01*
X0192058Y0106766D01*
X0192068Y0106899D01*
X0192082Y0107031D01*
X0192100Y0107163D01*
X0192122Y0107295D01*
X0192147Y0107425D01*
X0192177Y0107555D01*
X0192210Y0107684D01*
X0192248Y0107812D01*
X0192289Y0107938D01*
X0192334Y0108064D01*
X0192382Y0108188D01*
X0192435Y0108310D01*
X0192491Y0108431D01*
X0192550Y0108550D01*
X0192613Y0108667D01*
X0192680Y0108782D01*
X0192750Y0108896D01*
X0192823Y0109007D01*
X0192900Y0109116D01*
X0192980Y0109222D01*
X0193063Y0109326D01*
X0193149Y0109428D01*
X0193238Y0109527D01*
X0193330Y0109623D01*
X0193425Y0109716D01*
X0193522Y0109807D01*
X0193623Y0109895D01*
X0193725Y0109979D01*
X0193831Y0110061D01*
X0193939Y0110139D01*
X0194049Y0110214D01*
X0194161Y0110286D01*
X0194275Y0110354D01*
X0194391Y0110419D01*
X0194509Y0110480D01*
X0194629Y0110538D01*
X0194751Y0110592D01*
X0194874Y0110642D01*
X0194999Y0110689D01*
X0195125Y0110732D01*
X0195252Y0110771D01*
X0195380Y0110807D01*
X0195510Y0110838D01*
X0195640Y0110866D01*
X0195771Y0110890D01*
X0195903Y0110910D01*
X0196035Y0110926D01*
X0196167Y0110938D01*
X0196300Y0110946D01*
X0196433Y0110950D01*
X0196567Y0110950D01*
X0196700Y0110946D01*
X0196833Y0110938D01*
X0196965Y0110926D01*
X0197097Y0110910D01*
X0197229Y0110890D01*
X0197360Y0110866D01*
X0197490Y0110838D01*
X0197620Y0110807D01*
X0197748Y0110771D01*
X0197875Y0110732D01*
X0198001Y0110689D01*
X0198126Y0110642D01*
X0198249Y0110592D01*
X0198371Y0110538D01*
X0198491Y0110480D01*
X0198609Y0110419D01*
X0198725Y0110354D01*
X0198839Y0110286D01*
X0198951Y0110214D01*
X0199061Y0110139D01*
X0199169Y0110061D01*
X0199275Y0109979D01*
X0199377Y0109895D01*
X0199478Y0109807D01*
X0199575Y0109716D01*
X0199670Y0109623D01*
X0199762Y0109527D01*
X0199851Y0109428D01*
X0199937Y0109326D01*
X0200020Y0109222D01*
X0200100Y0109116D01*
X0200177Y0109007D01*
X0200250Y0108896D01*
X0200320Y0108782D01*
X0200387Y0108667D01*
X0200450Y0108550D01*
X0200509Y0108431D01*
X0200565Y0108310D01*
X0200618Y0108188D01*
X0200666Y0108064D01*
X0200711Y0107938D01*
X0200752Y0107812D01*
X0200790Y0107684D01*
X0200823Y0107555D01*
X0200853Y0107425D01*
X0200878Y0107295D01*
X0200900Y0107163D01*
X0200918Y0107031D01*
X0200932Y0106899D01*
X0200942Y0106766D01*
X0200948Y0106633D01*
X0200950Y0106500D01*
X0200948Y0106367D01*
X0200942Y0106234D01*
X0200932Y0106101D01*
X0200918Y0105969D01*
X0200900Y0105837D01*
X0200878Y0105705D01*
X0200853Y0105575D01*
X0200823Y0105445D01*
X0200790Y0105316D01*
X0200752Y0105188D01*
X0200711Y0105062D01*
X0200666Y0104936D01*
X0200618Y0104812D01*
X0200565Y0104690D01*
X0200509Y0104569D01*
X0200450Y0104450D01*
X0200387Y0104333D01*
X0200320Y0104218D01*
X0200250Y0104104D01*
X0200177Y0103993D01*
X0200100Y0103884D01*
X0200020Y0103778D01*
X0199937Y0103674D01*
X0199851Y0103572D01*
X0199762Y0103473D01*
X0199670Y0103377D01*
X0199575Y0103284D01*
X0199478Y0103193D01*
X0199377Y0103105D01*
X0199275Y0103021D01*
X0199169Y0102939D01*
X0199061Y0102861D01*
X0198951Y0102786D01*
X0198839Y0102714D01*
X0198725Y0102646D01*
X0198609Y0102581D01*
X0198491Y0102520D01*
X0198371Y0102462D01*
X0198249Y0102408D01*
X0198126Y0102358D01*
X0198001Y0102311D01*
X0197875Y0102268D01*
X0197748Y0102229D01*
X0197620Y0102193D01*
X0197490Y0102162D01*
X0197360Y0102134D01*
X0197229Y0102110D01*
X0197097Y0102090D01*
X0196965Y0102074D01*
X0196833Y0102062D01*
X0196700Y0102054D01*
X0196567Y0102050D01*
X0196433Y0102050D01*
X0196300Y0102054D01*
X0196167Y0102062D01*
X0196035Y0102074D01*
X0195903Y0102090D01*
X0195771Y0102110D01*
X0195640Y0102134D01*
X0195510Y0102162D01*
X0195380Y0102193D01*
X0195252Y0102229D01*
X0195125Y0102268D01*
X0194999Y0102311D01*
X0194874Y0102358D01*
X0194751Y0102408D01*
X0194629Y0102462D01*
X0194509Y0102520D01*
X0194391Y0102581D01*
X0194275Y0102646D01*
X0194161Y0102714D01*
X0194049Y0102786D01*
X0193939Y0102861D01*
X0193831Y0102939D01*
X0193725Y0103021D01*
X0193623Y0103105D01*
X0193522Y0103193D01*
X0193425Y0103284D01*
X0193330Y0103377D01*
X0193238Y0103473D01*
X0193149Y0103572D01*
X0193063Y0103674D01*
X0192980Y0103778D01*
X0192900Y0103884D01*
X0192823Y0103993D01*
X0192750Y0104104D01*
X0192680Y0104218D01*
X0192613Y0104333D01*
X0192550Y0104450D01*
X0192491Y0104569D01*
X0192435Y0104690D01*
X0192382Y0104812D01*
X0192334Y0104936D01*
X0192289Y0105062D01*
X0192248Y0105188D01*
X0192210Y0105316D01*
X0192177Y0105445D01*
X0192147Y0105575D01*
X0192122Y0105705D01*
X0192100Y0105837D01*
X0192082Y0105969D01*
X0192068Y0106101D01*
X0192058Y0106234D01*
X0192052Y0106367D01*
X0192050Y0106500D01*
M02*
