%
M48
M72
T01C0.01378
T02C0.04000
T03C0.06700
T04C0.08900
%
T01
X51500Y126500
X106500Y156500
X111500Y161500
X116500Y146500
X176500Y191500
T02
X51500Y26854
X51500Y36697
X51500Y46539
X51500Y56382
X51500Y66224
X51500Y76067
X51500Y85909
X51500Y95752
X46500Y136500
X46500Y146500
X56500Y146500
X56500Y136500
X56500Y156500
X56500Y166500
X56500Y176500
X46500Y176500
X46500Y166500
X46500Y156500
X146500Y151500
X146500Y161500
X146500Y171500
X146500Y181500
X156500Y181500
X156500Y171500
X156500Y161500
X156500Y151500
X156500Y76500
X156500Y66500
X156500Y56500
X146500Y56500
X146500Y66500
X146500Y76500
T03
X21500Y139000
X21500Y154000
T04
X16500Y106500
X106500Y16500
X196500Y106500
M30
